<svg width="24" height="24" viewBox="0 0 24 24" fill="none" xmlns="http://www.w3.org/2000/svg">
<g clip-path="url(#clip0_1295_12793)">
<path d="M21.2826 14.4771C20.7299 13.0901 20.055 11.7509 19.2739 10.4915C19.0507 10.1302 18.8221 9.78477 18.599 9.4553C18.5033 9.31714 18.3917 9.18958 18.2589 9.06735L15.8941 6.88861C15.6391 6.65479 15.2936 6.55382 14.9535 6.6229C14.6134 6.68667 14.3318 6.90987 14.183 7.22339C14.0554 7.49441 13.997 7.78138 14.0076 8.06302L10.0752 4.43884C9.44818 3.85961 8.46508 3.90211 7.88585 4.52917C7.62546 4.81613 7.48728 5.17217 7.47666 5.52821L7.43945 5.49633C7.13655 5.21468 6.73802 5.06588 6.32884 5.08714C5.91434 5.10308 5.53171 5.27844 5.25007 5.58666C4.96842 5.88956 4.82497 6.28813 4.84091 6.69731C4.84091 6.72388 4.84091 6.75043 4.84091 6.78232C4.66554 6.72386 4.48486 6.69729 4.29886 6.70791C3.88437 6.72386 3.50175 6.89922 3.22542 7.20744C2.94909 7.51565 2.80031 7.90891 2.81626 8.31809C2.8322 8.73258 3.00756 9.1152 3.31578 9.39154L4.03316 10.0505C3.60804 10.0983 3.2201 10.3162 2.95971 10.6616C2.48676 11.2886 2.59837 12.2186 3.20417 12.7766L8.7414 17.8781C9.06025 18.1756 9.40565 18.452 9.76701 18.6964L11.4037 19.8177C11.6588 19.9931 11.9245 20.1525 12.1902 20.3013L14.1777 21.38C14.9589 21.8052 15.8091 22.0124 16.654 22.0124C18.1738 22.0124 19.6671 21.3428 20.6821 20.0993C21.984 18.4998 22.2125 16.2838 21.2826 14.4771Z" fill="#5AC235"/>
<path d="M11.6323 14.7162L5.76563 9.31178C5.24485 8.83352 5.21296 8.02045 5.69122 7.49967C6.16949 6.9789 6.98256 6.94704 7.50333 7.4253L13.5454 13.0263L8.40141 8.25429C7.88063 7.77603 7.84874 6.96296 8.327 6.44218C8.80527 5.92141 9.6183 5.88955 10.1391 6.36781L16.0058 11.7722L17.2918 12.9572L15.0121 10.8582C14.5178 10.4011 14.3797 9.67844 14.6667 9.07264C14.9058 8.57312 15.5541 8.45091 15.9633 8.8229L18.328 11.0016C18.4396 11.1079 18.5406 11.2195 18.631 11.3471C18.8541 11.6712 19.0773 12.0113 19.3005 12.3674C20.1561 13.7437 20.7991 15.0828 21.288 16.3104C22.1807 18.0481 21.9628 20.1524 20.73 21.6669C19.2367 23.5056 16.6382 24.0157 14.5604 22.8839L12.5729 21.8051C12.3125 21.6616 12.0575 21.5075 11.8077 21.3375L10.171 20.2162C9.82024 19.9771 9.48545 19.7114 9.17192 19.4244L3.64001 14.3229C3.1458 13.8659 3.02357 13.1007 3.42743 12.564C3.88976 11.9475 4.77189 11.8785 5.32455 12.3886L9.57047 16.2838L9.87338 16.5602L3.75162 10.9379C3.23084 10.4596 3.19895 9.64658 3.67721 9.1258C4.15548 8.60503 4.96851 8.57313 5.48929 9.0514L11.4889 14.578" fill="#C8E4AF"/>
<path d="M11.6323 14.7162L5.76563 9.31178C5.24485 8.83352 5.21296 8.02045 5.69122 7.49967C6.16949 6.9789 6.98256 6.94704 7.50333 7.4253L13.5454 13.0263L8.40141 8.25429C7.88063 7.77603 7.84874 6.96296 8.327 6.44218C8.80527 5.92141 9.6183 5.88955 10.1391 6.36781L16.0058 11.7722L17.2918 12.9572L15.0121 10.8582C14.5178 10.4011 14.3797 9.67844 14.6667 9.07264C14.9058 8.57312 15.5541 8.45091 15.9633 8.8229L18.328 11.0016C18.4396 11.1079 18.5406 11.2195 18.631 11.3471C18.8541 11.6712 19.0773 12.0113 19.3005 12.3674C20.1561 13.7437 20.7991 15.0828 21.288 16.3104C22.1807 18.0481 21.9628 20.1524 20.73 21.6669C19.2367 23.5056 16.6382 24.0157 14.5604 22.8839L12.5729 21.8051C12.3125 21.6616 12.0575 21.5075 11.8077 21.3375L10.171 20.2162C9.82024 19.9771 9.48545 19.7114 9.17192 19.4244L3.64001 14.3229C3.1458 13.8659 3.02357 13.1007 3.42743 12.564C3.88976 11.9475 4.77189 11.8785 5.32455 12.3886L9.57047 16.2838L9.87338 16.5602L3.75162 10.9379C3.23084 10.4596 3.19895 9.64658 3.67721 9.1258C4.15548 8.60503 4.96851 8.57313 5.48929 9.0514L11.4889 14.578" stroke="#C8E4AF" stroke-miterlimit="10"/>
<path d="M21.7715 16.1087C21.2135 14.7111 20.5333 13.3561 19.7415 12.0807C19.513 11.7193 19.2899 11.3686 19.056 11.0338C18.9498 10.8797 18.8222 10.7362 18.6787 10.5981L16.314 8.41932C15.9951 8.12704 15.57 8.00482 15.1396 8.08453C14.7145 8.16955 14.3637 8.44055 14.1777 8.82848C14.114 8.95601 14.0661 9.09418 14.0342 9.23235L10.4898 5.96423C10.1284 5.62944 9.66079 5.47001 9.18784 5.48595C8.70426 5.50721 8.25788 5.71447 7.92841 6.07052C7.74242 6.27245 7.60425 6.51687 7.52454 6.77726C6.80714 6.36808 5.87718 6.49563 5.29263 7.12801C5.02693 7.42028 4.86219 7.78693 4.82499 8.17486C4.72934 8.16423 4.63369 8.15891 4.53273 8.16422C4.04915 8.18548 3.60277 8.39274 3.2733 8.74878C2.94383 9.10483 2.77376 9.56715 2.79502 10.0507C2.81628 10.5343 3.02354 10.9807 3.37959 11.3102L3.73562 11.6396C3.44335 11.7619 3.18297 11.9638 2.98635 12.2242C2.43369 12.9575 2.55589 14.0416 3.26266 14.6952L8.79992 19.7967C9.12939 20.0996 9.48543 20.3866 9.85741 20.6416L11.4941 21.7629C11.7598 21.9436 12.0308 22.1083 12.3019 22.2571L14.2893 23.3359C15.0864 23.7716 15.9898 24.0001 16.8932 24.0001C18.5459 24.0001 20.0869 23.2668 21.1285 21.9861C22.4942 20.3068 22.744 17.9846 21.7715 16.0981V16.1087ZM14.7995 22.4112L12.812 21.3324C12.5676 21.1996 12.3231 21.0508 12.0946 20.8914L10.4579 19.7701C10.1337 19.5469 9.8149 19.2972 9.52263 19.0261L3.98536 13.9247C3.67715 13.6377 3.60808 13.1754 3.83659 12.8778C3.96944 12.7024 4.15543 12.5962 4.36799 12.5749C4.38925 12.5749 4.41582 12.5749 4.43708 12.5749C4.62838 12.5749 4.80907 12.644 4.94724 12.7768L9.49606 16.9484C9.70862 17.145 10.0487 17.129 10.2453 16.9165C10.4419 16.6986 10.426 16.3638 10.2134 16.1672L4.09165 10.5449C3.94286 10.4121 3.85783 10.2261 3.85251 10.0241C3.84188 9.8222 3.91631 9.63092 4.04916 9.48744C4.18201 9.33865 4.36799 9.25362 4.56461 9.24831C4.76123 9.22705 4.96317 9.31207 5.10665 9.44492L5.28199 9.60434C5.31388 9.64154 5.35108 9.67343 5.38828 9.71063L11.255 15.115C11.3613 15.2107 11.5048 15.2585 11.6376 15.2532C11.7811 15.2479 11.9086 15.1894 12.0096 15.0831C12.2062 14.8652 12.1956 14.5305 11.9777 14.3339L11.8767 14.2435C11.8767 14.2435 11.8448 14.2063 11.8236 14.1904L6.05254 8.87632C5.79746 8.58936 5.80279 8.15359 6.06317 7.86663C6.34482 7.56373 6.81777 7.5425 7.12598 7.82414L13.1627 13.4251C13.269 13.5208 13.4072 13.5793 13.5454 13.5686C13.6888 13.5633 13.8164 13.4995 13.912 13.3986C14.0077 13.2923 14.0608 13.1594 14.0555 13.0159C14.0502 12.8725 13.9917 12.745 13.8854 12.644L8.73612 7.87195C8.58733 7.7391 8.50233 7.55312 8.49702 7.35119C8.4917 7.14925 8.56078 6.95794 8.69364 6.80914C8.82649 6.66035 9.01247 6.57532 9.2144 6.57C9.41102 6.55938 9.60765 6.6338 9.75645 6.76665L16.9091 13.3561C17.0154 13.4517 17.1536 13.4995 17.2918 13.4995C17.4352 13.4942 17.5628 13.4305 17.6584 13.3295C17.7541 13.2232 17.8072 13.0903 17.7966 12.9469C17.7913 12.8034 17.7328 12.6759 17.6266 12.5802L15.3468 10.4759C15.0226 10.1783 14.9323 9.70531 15.1183 9.30675C15.1608 9.22173 15.2299 9.16328 15.3202 9.14734C15.4106 9.1314 15.5009 9.15797 15.57 9.21642L17.9347 11.3952C18.0251 11.4749 18.0942 11.5599 18.158 11.6503C18.3758 11.9691 18.599 12.3039 18.8116 12.6493C19.5662 13.8609 20.2251 15.1682 20.7778 16.5551C21.5749 18.1068 21.3783 19.9827 20.2783 21.3324C18.9444 22.9692 16.6275 23.4262 14.7729 22.4165L14.7995 22.4112Z" fill="#5AC235"/>
<path d="M4.39981 0.931652V0.921046C4.21382 0.554376 3.91625 0.357746 3.54958 0.379002C3.18291 0.400258 2.83749 0.655324 2.70995 1.00074C2.58773 1.33552 2.68868 1.68626 2.99158 1.97322C2.99158 1.97322 4.52205 3.23796 4.54862 3.26453C4.6177 3.3283 4.70803 3.36018 4.79837 3.36018C4.88339 3.36018 4.96311 3.33363 5.0375 3.28048C5.19161 3.16889 5.24475 2.97227 5.17036 2.81285L4.38917 0.936971L4.39981 0.931652Z" fill="#C8E4AF" stroke="#C8E4AF" stroke-miterlimit="10"/>
<path d="M2.5878 3.27004C2.3221 2.99902 1.91291 2.93525 1.54624 3.1053C1.17957 3.27535 0.966997 3.6314 1.0042 4.00338C1.02014 4.25314 1.13175 4.48163 1.31774 4.65168C1.48779 4.80579 1.70567 4.89082 1.95011 4.89082C1.97137 4.89082 1.99263 4.89082 2.0192 4.89082C2.07234 4.88019 2.22111 4.87489 2.39647 4.86957C3.17233 4.843 3.45398 4.82173 3.53369 4.657C3.58683 4.5826 3.61341 4.49759 3.61341 4.40193C3.61341 4.29034 3.56559 4.18935 3.48588 4.11495L2.59309 3.27004H2.5878Z" fill="#5AC235"/>
<path d="M7.12073 0.0123936C6.60527 0.0814762 6.24391 0.554437 6.3183 1.08584C6.33425 1.13898 6.34489 1.28776 6.36614 1.46312C6.45117 2.23366 6.49368 2.51532 6.66373 2.57909C6.7275 2.6216 6.80188 2.64285 6.88159 2.64285C6.89753 2.64285 6.90817 2.64285 6.92411 2.64285C7.03039 2.63223 7.13137 2.57907 7.20045 2.49405L7.97628 1.53752C8.22604 1.25056 8.25795 0.836079 8.06133 0.485352C7.86471 0.134624 7.49803 -0.051375 7.12605 0.0123936H7.12073Z" fill="#5AC235"/>
<path d="M21.6652 3.37623C21.9256 3.06271 21.9788 2.70135 21.8141 2.38251C21.644 2.05835 21.2614 1.84578 20.9053 1.87767C20.5493 1.90424 20.273 2.14337 20.1348 2.53661L19.6034 4.49217C19.5503 4.66754 19.6246 4.85351 19.7947 4.94385C19.8585 4.98105 19.9276 4.99701 19.9913 4.99701C20.0976 4.99701 20.2039 4.95451 20.273 4.86948L21.6599 3.38684L21.6706 3.37623H21.6652Z" fill="#C8E4AF" stroke="#C8E4AF" stroke-miterlimit="10"/>
<path d="M17.4512 1.56405C17.228 1.68096 17.0686 1.8776 16.9889 2.11673C16.9145 2.35587 16.9358 2.61091 17.0633 2.85004C17.0952 2.90318 17.1642 3.04137 17.244 3.20079C17.5894 3.8863 17.7222 4.13607 17.9029 4.13607C17.9295 4.14138 17.9561 4.14667 17.9879 4.14667C18.158 4.14667 18.3174 4.04041 18.3759 3.87036L18.7744 2.70659C18.9073 2.35054 18.7957 1.95197 18.4928 1.69158C18.1899 1.4312 17.7754 1.38338 17.4512 1.56937V1.56405Z" fill="#5AC235"/>
<path d="M23.6208 5.48036C23.3444 5.03929 22.7652 4.90645 22.3082 5.19341C22.2604 5.23061 22.1275 5.31033 21.9734 5.40066C21.3145 5.7939 21.0753 5.94801 21.0913 6.12869C21.0807 6.21903 21.0966 6.30936 21.1444 6.38907C21.1976 6.48472 21.2879 6.54848 21.3942 6.57505L22.5845 6.88859C22.6642 6.90985 22.7493 6.92579 22.829 6.92579C23.1159 6.92579 23.3923 6.78763 23.5783 6.53256C23.8174 6.2084 23.8333 5.79389 23.6261 5.48567L23.6208 5.48036Z" fill="#5AC235"/>
</g>
<defs>
<clipPath id="clip0_1295_12793">
<rect width="24" height="24" fill="white"/>
</clipPath>
</defs>
</svg>
