<svg width="24" height="24" viewBox="0 0 24 24" fill="none" xmlns="http://www.w3.org/2000/svg">
<path d="M12 24C18.6274 24 24 18.6274 24 12C24 5.37258 18.6274 0 12 0C5.37258 0 0 5.37258 0 12C0 18.6274 5.37258 24 12 24Z" fill="#FFB6C0"/>
<path d="M12.5274 6.29098L14.0376 9.35262C14.1301 9.54098 14.3082 9.67111 14.5171 9.70193L17.8938 10.1917C18.4178 10.267 18.6267 10.9108 18.2466 11.2773L15.8014 13.6608C15.6507 13.8081 15.5822 14.017 15.6164 14.2259L16.1918 17.5889C16.2808 18.1095 15.7363 18.5067 15.2671 18.2602L12.2466 16.6711C12.0616 16.5752 11.839 16.5752 11.6541 16.6711L8.63355 18.2602C8.16779 18.5067 7.61984 18.1095 7.70888 17.5889L8.28422 14.2259C8.31847 14.0204 8.24998 13.8081 8.0993 13.6608L5.65409 11.2773C5.27738 10.9074 5.48627 10.267 6.00682 10.1917L9.38355 9.70193C9.59245 9.67111 9.77052 9.54098 9.86299 9.35262L11.3733 6.29098C11.6061 5.81837 12.2808 5.81837 12.5171 6.29098H12.5274Z" fill="white"/>
<path d="M18.4863 11.5204C18.7568 11.2567 18.8493 10.8731 18.7329 10.5169C18.6164 10.1608 18.315 9.90393 17.9418 9.84913L14.5651 9.35941C14.4692 9.34571 14.387 9.28407 14.3424 9.19845L12.8322 6.13681C12.6643 5.80119 12.3287 5.59229 11.9554 5.59229C11.5822 5.59229 11.2431 5.80119 11.0753 6.13681L9.56504 9.19845C9.52052 9.28407 9.43834 9.34571 9.34245 9.35941L5.96572 9.84913C5.59586 9.90393 5.29106 10.1574 5.17463 10.5169C5.05819 10.8731 5.15409 11.2601 5.42121 11.5204L7.86299 13.9039C7.93149 13.9724 7.96573 14.0683 7.94861 14.1642L7.37327 17.5272C7.31163 17.8971 7.45887 18.2635 7.76367 18.4861C7.9349 18.6094 8.13353 18.6745 8.33901 18.6745C8.49654 18.6745 8.65408 18.6334 8.79449 18.5615L11.815 16.9724C11.9007 16.9279 12.0034 16.9279 12.089 16.9724L15.1096 18.5615C15.4418 18.7361 15.8356 18.7087 16.1404 18.4861C16.4452 18.2669 16.5924 17.8971 16.5308 17.5272L15.9555 14.1642C15.9383 14.0683 15.9692 13.9724 16.0411 13.9039L18.4863 11.5204ZM15.4315 17.9519L12.4109 16.3628C12.2671 16.2875 12.113 16.2498 11.9554 16.2498C11.7979 16.2498 11.6438 16.2875 11.5 16.3628L8.47943 17.9519C8.37669 18.0067 8.26366 17.9964 8.16777 17.9313C8.07188 17.8628 8.0308 17.7567 8.05135 17.6437L8.62669 14.2806C8.68148 13.9621 8.57531 13.6402 8.34586 13.4142L5.90065 11.0306C5.81846 10.9484 5.79107 10.8389 5.82532 10.7293C5.86299 10.6197 5.94861 10.5443 6.06505 10.5306L9.44176 10.0409C9.76025 9.99297 10.0376 9.79434 10.1815 9.50667L11.6918 6.44502C11.7945 6.23612 12.1164 6.23612 12.2191 6.44502L13.7294 9.50667C13.8733 9.79434 14.1472 9.99639 14.4657 10.0409L17.8424 10.5306C17.9589 10.5478 18.0445 10.6197 18.0822 10.7293C18.1164 10.8389 18.0924 10.9484 18.0068 11.0306L15.5616 13.4142C15.3322 13.6402 15.226 13.9621 15.2808 14.2806L15.8561 17.6437C15.8767 17.7567 15.8322 17.8628 15.7397 17.9313C15.6438 17.9998 15.5308 18.0067 15.4281 17.9553L15.4315 17.9519Z" fill="#FF3A55"/>
</svg>
