<svg width="24" height="24" viewBox="0 0 24 24" fill="none" xmlns="http://www.w3.org/2000/svg">
<path d="M12 24C18.6274 24 24 18.6274 24 12C24 5.37259 18.6274 0 12 0C5.37258 0 0 5.37259 0 12C0 18.6274 5.37258 24 12 24Z" fill="#FAEA9C"/>
<path d="M16.2397 9.74997C16.2397 7.35271 14.25 5.41778 11.8288 5.51367C9.66437 5.59929 7.86643 7.37668 7.76369 9.54449C7.70889 10.6849 8.10615 11.7329 8.79108 12.5239C9.31848 13.1335 9.64382 13.8938 9.64382 14.702V14.9589H14.1473C14.1473 14.0856 14.5171 13.2705 15.1096 12.6301C15.8116 11.8733 16.2397 10.863 16.2397 9.74997Z" fill="white"/>
<path d="M15.1781 6.44845C14.274 5.57858 13.0753 5.12995 11.8185 5.17105C9.46574 5.26351 7.53423 7.17448 7.42464 9.52722C7.36642 10.7121 7.76368 11.8526 8.53423 12.7464C9.0308 13.3217 9.30477 14.0135 9.30477 14.7019V14.9587C9.30477 15.1471 9.45888 15.3012 9.64724 15.3012H14.1507C14.339 15.3012 14.4931 15.1471 14.4931 14.9587C14.4931 14.2121 14.8014 13.469 15.363 12.8663C16.1507 12.0169 16.5856 10.9108 16.5856 9.75324C16.5856 8.49639 16.0856 7.32173 15.1781 6.45187V6.44845ZM9.98628 14.6163C9.96573 13.7943 9.63354 12.9758 9.05135 12.3012C8.39382 11.5409 8.0582 10.5683 8.10614 9.56146C8.20203 7.56146 9.84244 5.93475 11.8459 5.85941C12.9144 5.81146 13.9281 6.19845 14.702 6.94502C15.4726 7.68817 15.8972 8.68475 15.8972 9.75324C15.8972 10.7361 15.5274 11.6779 14.8562 12.3971C14.2637 13.0341 13.9007 13.8149 13.8185 14.6163H9.98285H9.98628Z" fill="#D1AF00"/>
<path d="M14.1472 14.541H9.6438C9.45544 14.541 9.30133 14.6951 9.30133 14.8835V16.2396C9.30133 17.6711 10.4657 18.8321 11.8938 18.8321C13.3219 18.8321 14.4863 17.6677 14.4863 16.2396V14.8835C14.4863 14.6951 14.3322 14.541 14.1438 14.541H14.1472Z" fill="#D1AF00"/>
<g clip-path="url(#clip0_1295_12788)">
<path d="M12.9899 16.0717H12.4664L12.4943 11.8741H11.5066V16.0682H10.9831V11.8777H10.3933C10.1699 11.8705 9.86281 11.8097 9.59756 11.5807C9.32184 11.3338 9.14734 10.9401 9.13687 10.525C9.1264 10.1457 9.25902 9.80215 9.50333 9.56596C9.89771 9.18306 10.5329 9.11149 10.9901 9.39419C11.1297 9.48008 11.2484 9.59817 11.3426 9.73773C11.4543 9.90235 11.5101 10.1027 11.5101 10.3103V11.3373H12.5013L12.5083 10.3246C12.5083 9.95602 12.6933 9.62322 12.983 9.45861C13.3948 9.22958 13.8659 9.35125 14.1521 9.57312C14.4313 9.78783 14.6058 10.1672 14.6198 10.5823C14.6338 10.9938 14.4837 11.3803 14.2254 11.6093C14.0335 11.7775 13.7787 11.8705 13.4855 11.8777H13.0213L12.9934 16.0753L12.9899 16.0717ZM10.3654 9.7592C10.1839 9.7592 9.99543 9.8272 9.86281 9.95602C9.72669 10.0884 9.6534 10.2852 9.66038 10.5143C9.66736 10.7755 9.77556 11.026 9.94308 11.1727C10.0932 11.3016 10.2781 11.3373 10.4073 11.3409H10.9866V10.3139C10.9866 10.2137 10.9587 10.1206 10.9098 10.0455C10.8575 9.96676 10.7912 9.90235 10.7179 9.85582C10.6167 9.79141 10.491 9.7592 10.3689 9.7592H10.3654ZM13.4541 9.87014C13.3808 9.87014 13.3075 9.88445 13.2377 9.92382C13.1086 9.99539 13.0283 10.1564 13.0283 10.3282L13.0213 11.3373H13.4751C13.5867 11.3373 13.7543 11.3087 13.8764 11.2014C14.016 11.0761 14.0998 10.8471 14.0893 10.5966C14.0823 10.3425 13.9846 10.1171 13.831 9.99897C13.7473 9.93455 13.6007 9.86656 13.4506 9.86656L13.4541 9.87014Z" fill="#D1AF00"/>
</g>
<defs>
<clipPath id="clip0_1295_12788">
<rect width="5.47945" height="6.84931" fill="white" transform="translate(9.13696 9.22266)"/>
</clipPath>
</defs>
</svg>
