<svg width="24" height="24" viewBox="0 0 24 24" fill="none" xmlns="http://www.w3.org/2000/svg">
<g clip-path="url(#clip0_1295_12795)">
<path d="M22.9124 18.3663L18.2896 15.8483C18.121 15.7613 17.9198 15.7613 17.7567 15.8537C17.5935 15.9462 17.4902 16.1202 17.4848 16.3105C17.4032 19.6226 13.9334 20.9333 13.8954 20.9496C13.7431 21.004 13.6234 21.1236 13.569 21.2759C13.5147 21.4282 13.531 21.5967 13.6126 21.7381L14.7818 23.7341C14.8797 23.8972 15.0592 24.0006 15.2495 24.0006H18.034C20.8784 24.0006 23.1897 21.6892 23.1897 18.8449C23.1897 18.6437 23.081 18.4642 22.9069 18.3663H22.9124Z" fill="#2F7EA7"/>
<path d="M9.29437 20.9439C9.26174 20.933 5.79199 19.6332 5.71041 16.3048C5.71041 16.1145 5.60164 15.9405 5.43848 15.848C5.27533 15.7555 5.0741 15.7501 4.90551 15.8426L0.282795 18.3606C0.108764 18.453 0 18.6379 0 18.8392C0 21.6835 2.31135 23.9948 5.15567 23.9948H7.94017C8.13052 23.9948 8.31 23.8915 8.40789 23.7284L9.57716 21.7324C9.65874 21.591 9.67505 21.4224 9.62066 21.2702C9.56628 21.1179 9.44664 20.9982 9.29437 20.9439Z" fill="#2F7EA7"/>
<path d="M18.0286 16.3209L17.55 16.0599C16.6635 15.5759 16.0055 14.7655 15.7172 13.8029L14.3739 9.32704C14.238 8.88108 14.1564 8.42424 14.1183 7.95653L13.618 1.48472C13.5799 0.957187 13.1339 0.549316 12.6064 0.549316C12.0462 0.549316 11.5894 1.00615 11.5894 1.56631V17.5011C11.5894 18.3386 11.9973 19.1272 12.688 19.6058C13.0252 19.8396 13.308 20.1442 13.5146 20.5031L14.0748 21.4603C14.0748 21.4603 17.9307 20.0844 18.0231 16.3264L18.0286 16.3209Z" fill="#B9E3F8" stroke="#B9E3F8" stroke-miterlimit="10"/>
<path d="M5.1611 16.3209L5.63969 16.0599C6.52616 15.5759 7.18422 14.7655 7.47246 13.8029L8.81576 9.32704C8.95173 8.88108 9.0333 8.42424 9.07137 7.95653L9.5717 1.48472C9.60977 0.957187 10.0557 0.549316 10.5833 0.549316C11.1434 0.549316 11.6003 1.00615 11.6003 1.56631V17.5011C11.6003 18.3386 11.1924 19.1272 10.5017 19.6058C10.1645 19.8396 9.8817 20.1442 9.67504 20.5031L9.11487 21.4603C9.11487 21.4603 5.259 20.0844 5.16655 16.3264L5.1611 16.3209Z" fill="#B9E3F8" stroke="#B9E3F8" stroke-miterlimit="10"/>
<path d="M18.2897 15.8423L17.8111 15.5813C17.0497 15.1679 16.4895 14.4773 16.2394 13.6452L14.8961 9.16928C14.7764 8.76139 14.6948 8.34263 14.6622 7.91299L14.1673 1.44121C14.1075 0.636316 13.4222 0 12.6119 0C12.2203 0 11.8723 0.146851 11.5949 0.386144C11.323 0.146851 10.9695 0 10.5779 0C9.76757 0 9.08777 0.630877 9.02251 1.44121L8.52216 7.91299C8.48953 8.33719 8.40796 8.76139 8.28831 9.16928L6.945 13.6452C6.69483 14.4773 6.13466 15.1679 5.37327 15.5813L4.8947 15.8423C4.71523 15.9402 4.60645 16.1306 4.61189 16.3318C4.71522 20.5901 9.06057 21.9987 9.10408 21.9987C9.29443 21.9987 9.47389 21.8953 9.57178 21.7322L10.1319 20.775C10.3005 20.4868 10.5235 20.242 10.8009 20.0517C11.1109 19.8341 11.3774 19.5622 11.5895 19.2577C11.8016 19.5622 12.0626 19.8341 12.378 20.0517C12.6554 20.242 12.8784 20.4868 13.047 20.775L13.6071 21.7322C13.705 21.8953 13.8845 21.9987 14.0748 21.9987C14.1347 21.9987 14.1999 21.9878 14.2543 21.966C14.2978 21.9497 18.4637 20.427 18.5616 16.3318C18.5616 16.1251 18.4583 15.9402 18.2788 15.8423H18.2897ZM14.3033 20.7641L13.9878 20.2312C13.7377 19.807 13.4059 19.448 13.0035 19.1652C12.4596 18.79 12.1387 18.17 12.1387 17.5065V1.57173C12.1387 1.31068 12.3508 1.09858 12.6119 1.09858C12.8566 1.09858 13.0633 1.28892 13.0796 1.53366L13.58 8.00543C13.618 8.51121 13.7105 9.00613 13.8573 9.49016L15.2006 13.966C15.5324 15.0755 16.2774 15.9891 17.2944 16.5493L17.4739 16.6472C17.2455 19.0619 15.2224 20.3291 14.3141 20.775L14.3033 20.7641ZM11.0511 17.501C11.0511 18.1591 10.7302 18.7791 10.1863 19.1598C9.77845 19.4426 9.4467 19.8015 9.20197 20.2257L8.88655 20.7641C7.97832 20.3182 5.94977 19.051 5.72679 16.6363L5.90625 16.5384C6.92325 15.9837 7.66832 15.07 8.00007 13.9551L9.34338 9.47927C9.49022 8.99525 9.58266 8.50036 9.62073 7.99458L10.1211 1.52277C10.1374 1.27804 10.3441 1.0877 10.5888 1.0877C10.8498 1.0877 11.0619 1.29979 11.0619 1.56084V17.4956L11.0511 17.501Z" fill="#2F7EA7"/>
</g>
<defs>
<clipPath id="clip0_1295_12795">
<rect width="24" height="24" fill="white"/>
</clipPath>
</defs>
</svg>
