<svg width="24" height="24" viewBox="0 0 24 24" fill="none" xmlns="http://www.w3.org/2000/svg">
<path d="M12 24C18.6274 24 24 18.6274 24 12C24 5.37258 18.6274 0 12 0C5.37257 0 0 5.37258 0 12C0 18.6274 5.37257 24 12 24Z" fill="#B9E3F8"/>
<path d="M19.1267 14.8836L16.2157 13.298C16.1096 13.2432 15.9829 13.2432 15.8801 13.3014C15.7774 13.3596 15.7123 13.4692 15.7089 13.5891C15.6575 15.6747 13.4726 16.5001 13.4486 16.5103C13.3527 16.5446 13.2774 16.6199 13.2431 16.7158C13.2089 16.8117 13.2192 16.9179 13.2705 17.0069L14.0068 18.2638C14.0685 18.3665 14.1815 18.4316 14.3013 18.4316H16.0548C17.8459 18.4316 19.3013 16.9761 19.3013 15.185C19.3013 15.0583 19.2329 14.9453 19.1233 14.8836H19.1267Z" fill="#2F7EA7"/>
<path d="M10.5513 16.5102C10.5308 16.5033 8.34587 15.6848 8.2945 13.5889C8.2945 13.4691 8.22601 13.3595 8.12327 13.3013C8.02053 13.2431 7.89381 13.2396 7.78765 13.2979L4.87669 14.8835C4.7671 14.9417 4.69861 15.0581 4.69861 15.1848C4.69861 16.9759 6.15408 18.4314 7.94518 18.4314H9.6986C9.81846 18.4314 9.93148 18.3663 9.99313 18.2636L10.7294 17.0068C10.7808 16.9177 10.7911 16.8115 10.7568 16.7157C10.7226 16.6198 10.6472 16.5444 10.5513 16.5102Z" fill="#2F7EA7"/>
<path d="M16.0514 13.5995L15.75 13.4351C15.1918 13.1303 14.7774 12.62 14.5959 12.0139L13.75 9.19537C13.6644 8.91455 13.613 8.62687 13.589 8.33235L13.274 4.25701C13.25 3.92482 12.9692 3.66797 12.637 3.66797C12.2843 3.66797 11.9966 3.95564 11.9966 4.30838V14.3426C11.9966 14.87 12.2534 15.3666 12.6884 15.668C12.9007 15.8152 13.0788 16.007 13.2089 16.233L13.5616 16.8358C13.5616 16.8358 15.9897 15.9693 16.0479 13.6029L16.0514 13.5995Z" fill="white"/>
<path d="M7.9487 13.5995L8.25007 13.4351C8.80829 13.1303 9.22267 12.62 9.40418 12.0139L10.2501 9.19537C10.3357 8.91455 10.3871 8.62687 10.411 8.33235L10.7261 4.25701C10.7501 3.92482 11.0309 3.66797 11.3631 3.66797C11.7158 3.66797 12.0035 3.95564 12.0035 4.30838V14.3426C12.0035 14.87 11.7466 15.3666 11.3117 15.668C11.0994 15.8152 10.9213 16.007 10.7912 16.233L10.4384 16.8358C10.4384 16.8358 8.01035 15.9693 7.95213 13.6029L7.9487 13.5995Z" fill="white"/>
<path d="M16.2158 13.2978L15.9144 13.1334C15.435 12.8732 15.0822 12.4382 14.9247 11.9142L14.0788 9.09575C14.0034 8.8389 13.9521 8.5752 13.9315 8.30466L13.6199 4.22931C13.5822 3.72246 13.1507 3.32178 12.6404 3.32178C12.3938 3.32178 12.1747 3.41425 12 3.56493C11.8288 3.41425 11.6062 3.32178 11.3596 3.32178C10.8493 3.32178 10.4213 3.71904 10.3802 4.22931L10.0651 8.30466C10.0445 8.57178 9.99317 8.8389 9.91782 9.09575L9.07193 11.9142C8.9144 12.4382 8.56166 12.8732 8.0822 13.1334L7.78084 13.2978C7.66783 13.3595 7.59933 13.4793 7.60275 13.606C7.66782 16.2875 10.4041 17.1745 10.4315 17.1745C10.5514 17.1745 10.6644 17.1095 10.726 17.0067L11.0788 16.404C11.1849 16.2225 11.3254 16.0684 11.5 15.9485C11.6952 15.8115 11.863 15.6403 11.9966 15.4485C12.1302 15.6403 12.2945 15.8115 12.4932 15.9485C12.6678 16.0684 12.8082 16.2225 12.9144 16.404L13.2671 17.0067C13.3288 17.1095 13.4418 17.1745 13.5617 17.1745C13.5993 17.1745 13.6404 17.1677 13.6747 17.154C13.7021 17.1437 16.3254 16.1848 16.387 13.606C16.387 13.4759 16.3219 13.3595 16.2089 13.2978H16.2158ZM13.7055 16.3971L13.5069 16.0615C13.3493 15.7944 13.1404 15.5684 12.887 15.3903C12.5445 15.154 12.3425 14.7636 12.3425 14.3458V4.31151C12.3425 4.14712 12.476 4.01356 12.6404 4.01356C12.7945 4.01356 12.9247 4.13342 12.9349 4.28753L13.25 8.36287C13.274 8.68137 13.3322 8.99301 13.4247 9.2978L14.2706 12.1163C14.4795 12.8149 14.9486 13.3903 15.5891 13.743L15.7021 13.8047C15.5582 15.3252 14.2843 16.1231 13.7123 16.404L13.7055 16.3971ZM11.6575 14.3423C11.6575 14.7567 11.4555 15.1471 11.113 15.3868C10.8562 15.5649 10.6473 15.791 10.4932 16.0581L10.2945 16.3971C9.72262 16.1163 8.44523 15.3184 8.30481 13.7978L8.41782 13.7362C9.05823 13.3868 9.52741 12.8115 9.73632 12.1095L10.5822 9.29096C10.6747 8.98616 10.7329 8.67452 10.7569 8.35602L11.0719 4.28068C11.0822 4.12657 11.2123 4.00671 11.3665 4.00671C11.5308 4.00671 11.6644 4.14027 11.6644 4.30466V14.3389L11.6575 14.3423Z" fill="#46AFE6"/>
</svg>
