<svg xmlns="http://www.w3.org/2000/svg" viewBox="0 0 24 24"><path d="M13.0243 6.00019C12.8554 5.99829 12.6689 6.02404 12.4679 6.08515C11.4506 6.39542 11.4725 7.6754 11.9458 8.48492L17.12 17.3328C17.7475 18.4059 18.7503 18.9222 19.5855 18.3203C20.6738 17.5359 19.5701 15.9134 19.2763 15.4189L14.7685 7.44842C14.4327 6.85491 13.9422 6.0127 13.0233 6L13.0243 6.00019ZM8.42594 6.04261C7.62732 6.04261 6.98432 6.58236 6.98432 7.25282V7.26091C6.96512 7.41749 6.96512 7.5818 6.98432 7.75091V10.8816C6.83854 10.8361 6.68719 10.8129 6.53501 10.8128C6.11904 10.8129 5.72014 10.9853 5.42603 11.2921C5.13191 11.5988 4.96667 12.0149 4.96666 12.4487C4.96667 12.8826 5.1319 13.2986 5.42602 13.6054C5.72013 13.9122 6.11904 14.0846 6.53501 14.0846C6.6872 14.0845 6.83856 14.0612 6.98432 14.0155V17.2985C6.98432 17.969 7.62732 18.5088 8.42594 18.5088C9.22436 18.5088 9.86726 17.969 9.86726 17.2985V12.9887L12.3509 17.3608C12.9649 18.4416 14.1159 18.8776 14.92 18.2346C15.7764 17.5496 14.918 15.9388 14.6411 15.4417L10.2994 7.57307C10.109 7.22969 9.90852 6.91759 9.68871 6.66719C9.44525 6.29315 8.9709 6.04061 8.42478 6.04061L8.42594 6.04261ZM5.42374 6.26534C5.28733 6.26534 5.15224 6.29337 5.02621 6.34782C4.90017 6.40226 4.78565 6.48207 4.68919 6.58267C4.59273 6.68328 4.51622 6.80272 4.46402 6.93417C4.41182 7.06561 4.38496 7.20649 4.38496 7.34877C4.38496 7.49104 4.41183 7.63193 4.46403 7.76337C4.51623 7.89482 4.59274 8.01426 4.6892 8.11486C4.78566 8.21547 4.90017 8.29527 5.02621 8.34972C5.15224 8.40416 5.28733 8.43219 5.42374 8.43219C5.69924 8.43218 5.96345 8.31802 6.15825 8.11485C6.35305 7.91167 6.46248 7.6361 6.46247 7.34877C6.46248 7.2065 6.43562 7.06562 6.38342 6.93417C6.33123 6.80273 6.25471 6.6833 6.15826 6.5827C6.0618 6.48209 5.94729 6.40228 5.82127 6.34783C5.69524 6.29338 5.56016 6.26535 5.42374 6.26534ZM17.4871 7.79545C17.2387 7.79546 17.0005 7.89837 16.8249 8.08154C16.6493 8.2647 16.5506 8.51313 16.5506 8.77217C16.5506 9.03121 16.6493 9.27965 16.8249 9.46282C17.0005 9.64599 17.2387 9.7489 17.4871 9.74891C17.6101 9.74893 17.7319 9.72368 17.8455 9.67461C17.9592 9.62553 18.0624 9.55358 18.1494 9.46288C18.2364 9.37218 18.3054 9.2645 18.3525 9.14599C18.3996 9.02747 18.4238 8.90045 18.4238 8.77217C18.4238 8.64389 18.3995 8.51687 18.3525 8.39835C18.3054 8.27984 18.2364 8.17217 18.1494 8.08147C18.0624 7.99077 17.9592 7.91883 17.8455 7.86975C17.7319 7.82068 17.6101 7.79543 17.4871 7.79545ZM5.18331 15.3786C5.0279 15.3786 4.87402 15.4106 4.73045 15.4726C4.58687 15.5347 4.45642 15.6256 4.34654 15.7402C4.23666 15.8548 4.14951 15.9909 4.09005 16.1406C4.03059 16.2904 3.99999 16.4509 4 16.613C4.00002 16.9403 4.1247 17.2541 4.34661 17.4856C4.56852 17.717 4.86949 17.847 5.18331 17.8471C5.33872 17.8471 5.49261 17.8152 5.6362 17.7532C5.77979 17.6912 5.91026 17.6003 6.02016 17.4857C6.13007 17.3711 6.21725 17.235 6.27673 17.0853C6.33622 16.9355 6.36684 16.775 6.36685 16.613C6.36687 16.4509 6.33626 16.2903 6.27679 16.1406C6.21731 15.9908 6.13014 15.8547 6.02023 15.7401C5.91033 15.6255 5.77985 15.5346 5.63625 15.4726C5.49265 15.4105 5.33874 15.3786 5.18331 15.3786Z"/></svg>