<svg width="24" height="24" viewBox="0 0 24 24" fill="none" xmlns="http://www.w3.org/2000/svg">

    <g clip-path="url(#clip0_1371_15720)">
      <g clip-path="url(#clip1_1371_15720)">
        <path
          d="M7.3083 5.2835L7.33582 5.37964C7.3413 5.37807 7.34667 5.37652 7.35196 5.375C7.37081 5.36958 7.38861 5.36445 7.4067 5.35961L7.40722 5.35947L7.41569 5.35725L7.42612 5.35452C7.58285 5.31337 7.74121 5.28166 7.89941 5.26032C7.93739 5.25964 7.97457 5.25351 8.00997 5.24312C8.16344 5.22543 8.31895 5.21538 8.47678 5.21538H9.28614H14.6818H15.626C15.7216 5.21538 15.8166 5.21964 15.9116 5.22638C15.9604 5.24684 16.0136 5.25927 16.0684 5.26028C16.7245 5.34881 17.3803 5.61189 17.9041 6.0047L17.9113 6.01011L17.9193 6.01414L17.9223 6.01563C17.9836 6.04628 18.057 6.083 18.1341 6.10169C18.921 6.74334 19.4551 7.68507 19.5731 8.76681L20.4273 19.5566L20.4273 19.5573C20.5149 20.5641 20.2091 21.4345 19.6007 22.0871C19.0345 22.6526 18.2509 23.0008 17.3795 23.0008H6.81316C5.89771 23.0008 5.0259 22.6085 4.41543 21.9108L4.4156 21.9107L4.41089 21.9059C3.75877 21.2538 3.4532 20.3396 3.54045 19.4232L3.54048 19.423L4.5295 8.76823C4.52953 8.76797 4.52956 8.76771 4.52959 8.76746C4.70698 7.13813 5.82769 5.82515 7.33663 5.3794L7.3083 5.2835ZM7.3083 5.2835C5.76043 5.74074 4.61157 7.08763 4.43009 8.75742L7.89226 5.16039C7.72775 5.1823 7.56329 5.21511 7.40072 5.25779L7.38085 5.26301C7.36176 5.26812 7.34278 5.27358 7.32378 5.27905C7.31862 5.28053 7.31346 5.28202 7.3083 5.2835ZM21.526 19.4516L21.526 19.4508L20.6717 8.65957L20.6716 8.65873C20.5517 7.2925 19.9054 6.11333 18.9421 5.29896L20.5737 1.55823L20.5737 1.55825L20.5749 1.55539C20.6815 1.28861 20.5793 0.954838 20.2943 0.840875C20.028 0.734362 19.6949 0.836117 19.5804 1.12002L18.0325 4.68869C17.6949 4.51268 17.3344 4.37391 16.9566 4.2771L18.5502 0.659293L18.5502 0.659317L18.5515 0.656115C18.6582 0.389338 18.5559 0.0555675 18.271 -0.0583963C18.0047 -0.164867 17.6718 -0.0632333 17.5572 0.220415L15.8337 4.11867C15.7797 4.11697 15.7255 4.11607 15.671 4.11607H15.2314V3.67654C15.2314 2.45226 14.1974 1.4183 12.9731 1.4183H10.9947C9.77044 1.4183 8.73648 2.45226 8.73648 3.67654V4.11611H8.52174C8.39164 4.11611 8.26287 4.12104 8.13548 4.13037L6.36556 0.219971C6.25077 -0.0633393 5.91802 -0.164812 5.65193 -0.0583963C5.36696 0.0555674 5.26469 0.389338 5.37138 0.656115L5.37129 0.656152L5.37312 0.660199L7.0319 4.32703C6.68126 4.41761 6.30698 4.56794 5.96039 4.7515L4.38714 1.29899C4.2723 1.01578 3.93962 0.914348 3.67356 1.02075C3.38859 1.13471 3.28632 1.46848 3.39301 1.73526L3.39291 1.7353L3.39486 1.73958L5.07938 5.43735C4.18364 6.25704 3.59053 7.40073 3.47618 8.70346C3.47617 8.70355 3.47616 8.70364 3.47616 8.70373L2.4872 19.3128C2.48717 19.3131 2.48714 19.3133 2.4871 19.3136C2.34921 20.5572 2.76421 21.7539 3.59141 22.673C4.41999 23.5937 5.57119 24.1 6.81316 24.1H17.3796C18.5301 24.1 19.6358 23.6398 20.4199 22.8097L20.4217 22.8077C21.2048 21.9324 21.6178 20.7365 21.526 19.4516ZM9.83575 3.67654C9.83575 3.05733 10.3755 2.51757 10.9947 2.51757H12.9731C13.5924 2.51757 14.1321 3.05733 14.1321 3.67654V4.11611H9.83575V3.67654Z"
          fill="currentColor"
          stroke="currentColor"
          stroke-width="0.2"
        />
        <path
          d="M5.62472 20.9506L5.62471 20.9507L5.62789 20.9512C5.79702 20.9794 5.93994 20.9218 6.04418 20.8245C6.14611 20.7293 6.21109 20.597 6.237 20.4675L6.23752 20.4676L6.2385 20.4573L7.13777 10.97L7.13821 10.9701V10.9606C7.13821 9.26225 8.48733 7.91318 10.1856 7.91318H13.7827C15.4802 7.91318 16.8301 9.26137 16.8301 11.0056H16.8297L16.8306 11.0151L17.7299 20.4574L17.7293 20.4575L17.7314 20.4675C17.7835 20.7283 17.9964 20.9526 18.279 20.9526H18.2873L18.2955 20.9512C18.4479 20.9258 18.5818 20.8611 18.6781 20.7578C18.7753 20.6537 18.8287 20.5164 18.8287 20.358H18.8291L18.8282 20.3484L17.9294 10.9558C17.9269 8.65457 16.0845 6.81382 13.7827 6.81382H10.1856C7.88461 6.81382 6.04154 8.65381 6.03895 10.9108L5.14044 20.3451C5.11368 20.5127 5.17115 20.6543 5.26774 20.7578C5.36287 20.8597 5.49517 20.9247 5.62472 20.9506Z"
          fill="currentColor"
          stroke="currentColor"
          stroke-width="0.2"
        />
        <path
          d="M13.7002 20.711C13.7411 20.7451 13.7697 20.7525 13.7823 20.7525C13.795 20.7525 13.8235 20.7451 13.8644 20.711C13.9039 20.6781 13.9473 20.6264 13.9878 20.5555C14.0685 20.4143 14.132 20.2068 14.132 19.9532L13.7002 20.711ZM13.7002 20.711C13.6608 20.6781 13.6174 20.6264 13.5769 20.5556M13.7002 20.711L13.5769 20.5556M13.5769 20.5556C13.4962 20.4143 13.4327 20.2068 13.4327 19.9532M13.5769 20.5556L13.4327 19.9532M13.4327 19.9532C13.4327 19.6996 13.4962 19.4921 13.5769 19.3508M13.4327 19.9532L13.5769 19.3508M13.5769 19.3508C13.6174 19.28 13.6608 19.2282 13.7002 19.1954M13.5769 19.3508L13.7002 19.1954M13.7002 19.1954C13.7412 19.1613 13.7697 19.1539 13.7823 19.1539M13.7002 19.1954L13.7823 19.1539M13.7823 19.1539C13.795 19.1539 13.8236 19.1613 13.8645 19.1954M13.7823 19.1539L13.8645 19.1954M13.8645 19.1954C13.9039 19.2283 13.9473 19.28 13.9878 19.3508M13.8645 19.1954L13.9878 19.3508M13.9878 19.3508C14.0685 19.4921 14.132 19.6996 14.132 19.9532L13.9878 19.3508ZM15.1312 15.8065H8.83638C8.67876 15.8065 8.53964 15.8595 8.43967 15.9594C8.3397 16.0594 8.28672 16.1985 8.28672 16.3562C8.28672 16.5138 8.3397 16.6529 8.43967 16.7529C8.53964 16.8528 8.67876 16.9058 8.83638 16.9058H13.2327V18.1923C12.6872 18.4785 12.3335 19.1714 12.3335 19.9533C12.3335 20.4667 12.485 20.9379 12.7409 21.2831C12.9972 21.6287 13.3619 21.8518 13.7823 21.8518C14.2028 21.8518 14.5675 21.6287 14.8237 21.2831C15.0797 20.9379 15.2312 20.4667 15.2312 19.9533C15.2312 19.1714 14.8775 18.4785 14.332 18.1923V16.9058H15.1312C15.2888 16.9058 15.428 16.8528 15.5279 16.7529C15.6279 16.6529 15.6809 16.5138 15.6809 16.3562C15.6809 16.1985 15.6279 16.0594 15.5279 15.9594C15.428 15.8595 15.2888 15.8065 15.1312 15.8065Z"
          fill="currentColor"
          stroke="currentColor"
          stroke-width="0.2"
        />
      </g>
    </g>
    <defs>
      <clipPath id="clip0_1371_15720">
        <rect width="24" height="24" fill="currentColor" />
      </clipPath>
      <clipPath id="clip1_1371_15720">
        <rect width="24" height="24" fill="currentColor" />
      </clipPath>
    </defs>
</svg>
