<svg width="24" height="24" viewBox="0 0 24 24" fill="none" xmlns="http://www.w3.org/2000/svg">
<path d="M2 12C2 11.4477 2.44772 11 3 11H21C21.5523 11 22 11.4477 22 12C22 12.5523 21.5523 13 21 13H3C2.44772 13 2 12.5523 2 12Z" fill="#4A4A4A"/>
<path d="M6 4C6 3.44772 6.38376 3 6.85714 3H17.1429C17.6162 3 18 3.44772 18 4C18 4.55228 17.6162 5 17.1429 5H6.85714C6.38376 5 6 4.55228 6 4Z" fill="#4A4A4A"/>
<path d="M6 20C6 19.4477 6.29848 19 6.66667 19H17.3333C17.7015 19 18 19.4477 18 20C18 20.5523 17.7015 21 17.3333 21H6.66667C6.29848 21 6 20.5523 6 20Z" fill="#4A4A4A"/>
</svg>
