<svg width="24" height="24" viewBox="0 0 24 24" fill="none" xmlns="http://www.w3.org/2000/svg">
<path fill-rule="evenodd" clip-rule="evenodd" d="M13.8324 1.02026C11.4022 1.27061 9.19275 2.729 8.07563 4.82034L7.8926 5.16279H6.00909C4.04056 5.16279 3.6863 5.18169 3.34384 5.30213C2.7782 5.50052 2.26452 6.04137 2.07794 6.63181L2 6.88097V17.7569L2.07794 18.0049C2.27278 18.6225 2.81245 19.1704 3.42769 19.3759C3.65441 19.4515 3.72645 19.455 5.07147 19.4668L6.47908 19.4798L6.33856 19.6853C5.84731 20.4056 5.79063 21.1531 6.17205 21.903C6.42594 22.4025 6.95025 22.8028 7.54424 22.9516C7.70602 22.9917 8.86092 23 14.3638 23C20.5812 23 21.0027 22.9965 21.2188 22.9374C22.4918 22.5926 23.1472 21.224 22.5957 20.0596C22.5414 19.9427 21.6534 18.6048 20.6237 17.0861L18.752 14.3264L19.1086 14.0584C19.3046 13.9108 19.6412 13.6144 19.8549 13.3994C22.4399 10.8145 22.7056 6.79831 20.4831 3.88035C19.3169 2.36856 17.6137 1.36346 15.7266 1.0734C15.0981 0.998805 14.4641 0.98102 13.8324 1.02026ZM15.1302 2.79158C17.7199 3.05492 19.7309 4.92189 20.1431 7.44661C20.2076 7.97779 20.2119 8.51455 20.156 9.04671C20.0246 9.91471 19.6931 10.7403 19.1877 11.4581C18.9315 11.8218 18.282 12.4843 17.9714 12.7004L17.753 12.8503L16.9204 11.6198C16.4623 10.942 16.03 10.3209 15.9592 10.2394C15.847 10.1225 15.7222 10.0184 15.5872 9.92883L15.3428 9.76587L15.3298 8.3063C15.318 6.9164 15.3133 6.83374 15.24 6.61291C15.0452 6.02956 14.5327 5.49816 13.9765 5.30213C13.6399 5.18405 13.2833 5.16279 11.5722 5.16279H9.94851L10.0666 4.99511C10.2473 4.73649 10.7551 4.22045 11.0692 3.97601C12.2169 3.06734 13.6739 2.64239 15.1302 2.79158ZM7.29625 6.96127C7.29625 6.97544 7.27263 7.16202 7.24311 7.37694C7.17463 7.98521 7.17582 8.59931 7.24665 9.20731C7.48401 11.0471 8.43816 12.7417 9.91781 13.9497C10.0442 14.0525 10.1481 14.1469 10.1481 14.1587C10.1481 14.1706 9.59897 14.9724 8.92823 15.9419L7.70956 17.7037H5.87565C4.74673 17.7037 4.00632 17.6908 3.94963 17.6683C3.74416 17.5904 3.75361 17.8395 3.75361 12.3248C3.75361 8.64285 3.76424 7.23169 3.79376 7.14785C3.86697 6.93884 3.88351 6.93647 5.6749 6.93529C6.56647 6.93529 7.29625 6.94592 7.29625 6.96127ZM13.3683 6.98371C13.4054 6.99739 13.4388 7.01926 13.4662 7.04768C13.4936 7.0761 13.5143 7.11034 13.5266 7.14785C13.5537 7.22579 13.5667 7.67098 13.5667 8.50705V9.75051L13.3802 9.85443C13.0613 10.0327 12.7992 10.3433 12.0257 11.4663C11.6159 12.0591 11.2569 12.5752 11.2274 12.613C11.1743 12.6779 11.1672 12.6756 10.9971 12.5398C10.658 12.2477 10.3469 11.9247 10.0678 11.575C9.3018 10.5575 8.91505 9.30453 8.97428 8.03233C8.99436 7.66035 9.08292 7.02976 9.12544 6.96245C9.13488 6.9471 10.0666 6.93411 11.1967 6.93411C12.8712 6.93411 13.2715 6.94356 13.3683 6.98371ZM13.549 13.6947C13.5266 13.7171 12.8995 13.5707 12.8275 13.527C12.7909 13.5034 12.8688 13.3664 13.164 12.9413L13.549 12.3851L13.5585 13.0298C13.5644 13.3853 13.5596 13.684 13.549 13.6947ZM16.0808 13.5766C16.082 13.6155 15.8553 13.6805 15.5423 13.7289L15.3381 13.7608V12.4476L15.7088 12.9944C15.9131 13.2955 16.0808 13.5565 16.0808 13.5766ZM12.589 15.3113C12.8263 15.3762 13.1428 15.4483 13.2928 15.4731L13.5667 15.5168V16.452C13.5667 17.4794 13.5467 17.6022 13.3707 17.6683C13.3117 17.6908 12.6515 17.7014 11.5769 17.6955L9.87766 17.686L10.8011 16.3516L11.7246 15.0161L11.943 15.1046C12.0623 15.153 12.3528 15.2463 12.589 15.3113ZM19.0897 17.9836C21.1102 20.9677 21.0913 20.937 20.9555 21.1153C20.9093 21.1614 20.8519 21.1948 20.789 21.2121C20.619 21.2606 8.10161 21.2582 7.92566 21.2086C7.77687 21.1673 7.66705 21.0079 7.69893 20.8791C7.70956 20.8378 7.92212 20.5083 8.17246 20.1482L8.62592 19.4928L11.1412 19.4751C13.6364 19.4562 13.6577 19.4562 13.8927 19.3759C14.5008 19.1716 15.0381 18.6307 15.24 18.0226C15.3097 17.8112 15.3168 17.7014 15.3298 16.6717L15.344 15.5498L15.5447 15.5262C15.9661 15.464 16.3825 15.3712 16.7905 15.2487C16.937 15.2003 17.0822 15.1589 17.1141 15.1566C17.1531 15.1542 17.8061 16.0895 19.0897 17.9836Z" fill="#4A4A4A"/>
</svg>
