<svg width="21" height="20" viewBox="0 0 21 20" fill="none" xmlns="http://www.w3.org/2000/svg">
<path fill-rule="evenodd" clip-rule="evenodd" d="M4.01822 2.50065C3.45569 2.50065 2.99967 2.95667 2.99967 3.51919V5.92664C2.99967 6.38688 2.62658 6.75998 2.16634 6.75998C1.7061 6.75998 1.33301 6.38688 1.33301 5.92664V3.51919C1.33301 2.03619 2.53522 0.833984 4.01822 0.833984H7.259C7.71924 0.833984 8.09233 1.20708 8.09233 1.66732C8.09233 2.12756 7.71924 2.50065 7.259 2.50065H4.01822ZM12.9072 1.66732C12.9072 1.20708 13.2803 0.833984 13.7406 0.833984H16.9813C18.4643 0.833984 19.6666 2.03619 19.6666 3.51919V5.92664C19.6666 6.38688 19.2935 6.75998 18.8332 6.75998C18.373 6.75998 17.9999 6.38688 17.9999 5.92664V3.51919C17.9999 2.95667 17.5439 2.50065 16.9813 2.50065H13.7406C13.2803 2.50065 12.9072 2.12756 12.9072 1.66732ZM2.16634 13.2415C2.62658 13.2415 2.99967 13.6146 2.99967 14.0749V16.4823C2.99967 17.0449 3.45569 17.5009 4.01822 17.5009H7.259C7.71924 17.5009 8.09233 17.874 8.09233 18.3342C8.09233 18.7944 7.71924 19.1675 7.259 19.1675H4.01822C2.53522 19.1675 1.33301 17.9653 1.33301 16.4823V14.0749C1.33301 13.6146 1.7061 13.2415 2.16634 13.2415ZM18.8332 13.2415C19.2935 13.2415 19.6666 13.6146 19.6666 14.0749V16.4823C19.6666 17.9653 18.4643 19.1675 16.9813 19.1675H13.7406C13.2803 19.1675 12.9072 18.7944 12.9072 18.3342C12.9072 17.874 13.2803 17.5009 13.7406 17.5009H16.9813C17.5439 17.5009 17.9999 17.0449 17.9999 16.4823V14.0749C17.9999 13.6146 18.373 13.2415 18.8332 13.2415ZM6.33301 10.0007C6.33301 9.54041 6.7061 9.16732 7.16634 9.16732H9.66634V6.66732C9.66634 6.20708 10.0394 5.83398 10.4997 5.83398C10.9599 5.83398 11.333 6.20708 11.333 6.66732V9.16732H13.833C14.2932 9.16732 14.6663 9.54041 14.6663 10.0007C14.6663 10.4609 14.2932 10.834 13.833 10.834H11.333V13.334C11.333 13.7942 10.9599 14.1673 10.4997 14.1673C10.0394 14.1673 9.66634 13.7942 9.66634 13.334V10.834H7.16634C6.7061 10.834 6.33301 10.4609 6.33301 10.0007Z" fill="#4A4A4A"/>
</svg>
