<svg width="24" height="24" viewBox="0 0 24 24" fill="none" xmlns="http://www.w3.org/2000/svg">
<path fill-rule="evenodd" clip-rule="evenodd" d="M8.93655 15.502C9.48772 15.4669 9.96294 15.8853 9.99799 16.4365C10.0442 17.1631 10.1682 17.653 10.406 17.9622C10.5936 18.2062 10.9805 18.5 12 18.5C12.5523 18.5 13 18.9477 13 19.5C13 20.0523 12.5523 20.5 12 20.5C10.558 20.5 9.49335 20.0562 8.82062 19.1815C8.19804 18.372 8.05279 17.3619 8.00202 16.5634C7.96697 16.0123 8.38537 15.537 8.93655 15.502Z" fill="#4A4A4A"/>
<path fill-rule="evenodd" clip-rule="evenodd" d="M12.9506 1.18409C12.8146 0.7757 12.4326 0.500143 12.0022 0.5C11.5717 0.499857 11.1895 0.77516 11.0533 1.18346C10.4783 2.90641 9.714 4.51614 8.91234 6.08391L10.3979 7.56946C10.9441 6.51542 11.4981 5.41195 12.001 4.26262C12.663 5.77791 13.4139 7.21345 14.119 8.56116C14.41 9.1175 14.6932 9.65887 14.9591 10.1847C15.5819 11.4163 16.1071 12.5572 16.4686 13.6401L18.9911 16.1626C18.8906 13.8212 17.8788 11.5266 16.7439 9.28222C16.4528 8.70646 16.1524 8.13167 15.8505 7.55414L15.8505 7.55411L15.8505 7.55409C14.7865 5.51851 13.7048 3.44904 12.9506 1.18409ZM17.84 20.6684L16.3811 19.2095C16.2148 19.5237 16.0135 19.816 15.7753 20.0778C15.0416 20.884 13.8694 21.5 12.0018 21.5C10.1343 21.5 8.96136 20.884 8.22682 20.0775C7.47009 19.2466 7.08542 18.1093 7.01242 16.9378C6.90369 15.1928 7.51308 13.3769 8.4858 11.3142L6.98779 9.81622C5.82283 12.1777 4.86252 14.5943 5.01629 17.0622C5.10959 18.5595 5.60803 20.1723 6.74815 21.4242C7.91047 22.7004 9.64817 23.5 12.0018 23.5C14.3555 23.5 16.0929 22.7004 17.2545 21.4239C17.4726 21.1842 17.6672 20.9312 17.84 20.6684Z" fill="#4A4A4A"/>
<path fill-rule="evenodd" clip-rule="evenodd" d="M3.29289 3.29289C3.68342 2.90237 4.31658 2.90237 4.70711 3.29289L21.7071 20.2929C22.0976 20.6834 22.0976 21.3166 21.7071 21.7071C21.3166 22.0976 20.6834 22.0976 20.2929 21.7071L3.29289 4.70711C2.90237 4.31658 2.90237 3.68342 3.29289 3.29289Z" fill="#4A4A4A"/>
</svg>
