<svg width="20" height="16" viewBox="0 0 20 16" fill="none" xmlns="http://www.w3.org/2000/svg">
<path fill-rule="evenodd" clip-rule="evenodd" d="M1.66667 0.5C0.746191 0.5 0 1.24619 0 2.16667V13.7458C0 14.6662 0.746193 15.4124 1.66667 15.4124H5.41302C5.41539 15.4124 5.41777 15.4124 5.42014 15.4124H18.3333C19.2538 15.4124 20 14.6662 20 13.7458V10.935C20.0002 10.9246 20.0002 10.9142 20 10.9038V2.16667C20 1.24619 19.2538 0.5 18.3333 0.5H1.66667ZM18.3333 9.08557V2.16667L1.66667 2.16667V13.7458H5.0507L12.7869 5.32286C13.0927 4.98996 13.6081 4.96151 13.9486 5.25872L18.3333 9.08557ZM7.31369 13.7458L18.3333 13.7458V11.2977L13.4648 7.04864L7.31369 13.7458Z" fill="#4A4A4A"/>
</svg>
