<svg width="20" height="16" viewBox="0 0 20 16" fill="none" xmlns="http://www.w3.org/2000/svg">
<path fill-rule="evenodd" clip-rule="evenodd" d="M1.66667 0.5C0.746192 0.5 0 1.24619 0 2.16667V2.46078C0 2.92102 0.373096 3.29412 0.833333 3.29412C1.29357 3.29412 1.66667 2.92102 1.66667 2.46078V2.16667L3.75 2.16667C4.21024 2.16667 4.58333 1.79357 4.58333 1.33333C4.58333 0.873096 4.21024 0.5 3.75 0.5H1.66667ZM7.5 0.5C7.03976 0.5 6.66667 0.873096 6.66667 1.33333C6.66667 1.79357 7.03976 2.16667 7.5 2.16667H12.0833C12.5436 2.16667 12.9167 1.79357 12.9167 1.33333C12.9167 0.873096 12.5436 0.5 12.0833 0.5H7.5ZM16.25 0.5C15.7898 0.5 15.4167 0.873096 15.4167 1.33333C15.4167 1.79357 15.7898 2.16667 16.25 2.16667H18.3333V4.07843C18.3333 4.53867 18.7064 4.91176 19.1667 4.91176C19.6269 4.91176 20 4.53867 20 4.07843V2.16667C20 1.24619 19.2538 0.5 18.3333 0.5H16.25ZM20 6.82353C20 6.36329 19.6269 5.9902 19.1667 5.9902C18.7064 5.9902 18.3333 6.36329 18.3333 6.82353V9.17647C18.3333 9.63671 18.7064 10.0098 19.1667 10.0098C19.6269 10.0098 20 9.63671 20 9.17647V6.82353ZM20 11.9216C20 11.4613 19.6269 11.0882 19.1667 11.0882C18.7064 11.0882 18.3333 11.4613 18.3333 11.9216V13.8333H17.0833C16.6231 13.8333 16.25 14.2064 16.25 14.6667C16.25 15.1269 16.6231 15.5 17.0833 15.5H18.3333C19.2538 15.5 20 14.7538 20 13.8333V11.9216ZM0 5.86672C0 4.94624 0.746193 4.20005 1.66667 4.20005H13.3333C14.2538 4.20005 15 4.94624 15 5.86672V11.9969V12.0134V13.8333C15 14.7538 14.2538 15.5 13.3333 15.5H1.66667C0.746192 15.5 0 14.7538 0 13.8333V5.86672ZM13.3333 5.86672V10.1714L10.5211 7.71696C10.1806 7.41975 9.66516 7.4482 9.35941 7.7811L3.80058 13.8333H1.66667V5.86672L13.3333 5.86672ZM13.3333 13.8333H6.06357L10.0373 9.50688L13.3333 12.3836V13.8333Z" fill="#4A4A4A"/>
</svg>
