<svg width="24" height="24" viewBox="0 0 24 24" fill="none" xmlns="http://www.w3.org/2000/svg">
<path fill-rule="evenodd" clip-rule="evenodd" d="M1.79301 1.04C1.54101 1.085 1.24701 1.314 1.11701 1.566C1.06027 1.67095 1.02567 1.78642 1.01535 1.90528C1.00503 2.02413 1.01921 2.14384 1.05701 2.257C1.13901 2.536 1.17601 2.575 5.16401 6.58L7.99301 9.42L8.01201 11C8.03101 12.461 8.03901 12.604 8.11901 12.9C8.48601 14.251 9.47001 15.25 10.88 15.7C11.202 15.803 11.262 15.809 12 15.809C12.739 15.809 12.798 15.803 13.12 15.7C13.307 15.64 13.57 15.541 13.705 15.48L13.95 15.369L14.639 16.059L15.328 16.749L14.882 16.977C14.3176 17.2578 13.7183 17.4622 13.1 17.585C12.503 17.697 11.414 17.688 10.811 17.568C9.60601 17.327 8.55301 16.779 7.71801 15.961C6.96301 15.22 6.48501 14.43 6.19401 13.44C6.06801 13.009 6.04001 12.681 6.00501 11.219C5.97401 9.923 5.96501 9.807 5.88901 9.66C5.52101 8.943 4.48801 8.943 4.10801 9.66C4.02801 9.81 4.02201 9.892 4.00701 10.933C3.99801 11.583 4.01101 12.266 4.03801 12.573C4.16071 13.978 4.66639 15.3224 5.50001 16.46C5.77701 16.836 6.45901 17.544 6.83501 17.847C7.5666 18.4236 8.38513 18.8803 9.26001 19.2C9.65501 19.338 10.46 19.54 10.79 19.583L11 19.61V21.514L9.35001 21.527L7.70001 21.54L7.50801 21.653C7.16601 21.854 6.95801 22.272 7.01901 22.636C7.06501 22.905 7.27301 23.203 7.51801 23.35L7.73601 23.48H16.268L16.504 23.327C17.145 22.912 17.142 22.076 16.496 21.672L16.26 21.525L14.63 21.522L13 21.52L13.001 20.61C13.001 20.11 13.014 19.68 13.031 19.656C13.047 19.631 13.15 19.598 13.26 19.582C13.601 19.533 14.492 19.292 14.906 19.137C15.345 18.973 15.887 18.707 16.4 18.404L16.74 18.203L17 18.451C17.143 18.588 18.007 19.438 18.92 20.342C21.346 22.744 21.478 22.866 21.742 22.942C22.517 23.168 23.255 22.303 22.895 21.592C22.823 21.449 16.962 15.533 11.114 9.697C4.12701 2.726 2.50701 1.134 2.35201 1.087C2.17186 1.02812 1.98047 1.01203 1.79301 1.04ZM11.36 1.044C10.784 1.118 10.06 1.415 9.56001 1.782C8.88501 2.279 8.41501 2.945 8.13801 3.8C8.04201 4.098 8.02601 4.221 8.00901 4.79C7.98901 5.508 8.02301 5.738 8.18401 5.949C8.30401 6.107 8.58501 6.276 8.80901 6.327C9.15801 6.405 9.62901 6.189 9.82001 5.864C9.91601 5.7 9.93201 5.615 9.97701 5.02C10.026 4.378 10.032 4.349 10.179 4.059C10.526 3.375 11.164 3 11.98 3C12.799 3 13.461 3.406 13.805 4.12L13.949 4.42L13.973 7.987L13.996 11.555L14.102 11.763C14.214 11.985 14.857 12.678 15.118 12.859C15.381 13.041 15.733 12.991 15.88 12.751C15.958 12.622 15.96 12.547 15.96 8.458V4.297L15.856 3.938C15.6641 3.22974 15.2779 2.58928 14.741 2.089C13.848 1.249 12.649 0.877999 11.36 1.044ZM18.753 9.619C18.4 9.708 18.09 9.998 18.024 10.3C18.01 10.366 17.981 11.077 17.96 11.88C17.919 13.409 17.902 13.563 17.702 14.18C17.484 14.849 17.53 15.279 17.855 15.613C18.236 16.005 18.893 16.021 19.208 15.647C19.448 15.362 19.841 14.074 19.919 13.32C19.973 12.799 19.971 10.462 19.917 10.266C19.869 10.094 19.606 9.786 19.428 9.694C19.2168 9.59741 18.9802 9.57112 18.753 9.619ZM12.291 13.845C11.593 14.005 10.556 13.502 10.222 12.843C10.08 12.564 10.002 12.179 10.001 11.76L10 11.421L11.201 12.62C12.347 13.766 12.396 13.821 12.291 13.845Z" fill="#4A4A4A"/>
</svg>
