<svg width="24" height="24" viewBox="0 0 24 24" fill="none" xmlns="http://www.w3.org/2000/svg">
<path d="M21.7 6.20001C21.1 5.70001 20.3 5.50001 19.8 5.50001C19.6 5.50001 19.3 5.50001 19 5.60001V5.20001C19 4.50001 18.7 3.80001 18.2 3.30001C17.5 2.60001 16.4 2.40001 15.5 2.70001C15.5 2.50001 15.4 2.30001 15.3 2.20001C15.2 1.90001 15 1.60001 14.7 1.30001C14.4 1.10001 14.1 0.900006 13.8 0.700006C13.1 0.400006 12.4 0.400006 11.7 0.700006C11.4 0.800006 11.1 1.00001 10.8 1.30001C10.5 1.50001 10.3 1.80001 10.2 2.20001C10.1 2.40001 10.1 2.50001 10 2.70001C9.1 2.40001 8 2.60001 7.3 3.30001C6.8 3.80001 6.5 4.50001 6.5 5.20001V11.3C6 10.9 5.4 10.6 4.7 10.5C4 10.4 3.4 10.6 2.8 10.9C2.2 11.2 1.8 11.8 1.6 12.4C1.4 13 1.5 13.7 1.9 14.3C3.2 16.4 3.7 17.4 4 18.1C4.2 18.5 4.3 18.8 4.5 19.1C5.5 20.5 7.2 21.5 8.1 21.9C9.6 22.6 11.7 23.5 14 23.5C16.7 23.5 18 22.4 19.2 21.2C20.5 20.1 21.4 18.6 22 16.8C22.5 15.2 22.6 9.20001 22.6 8.00001C22.5 7.30001 22.2 6.70001 21.7 6.20001ZM20.1 16.2C19.6 17.7 18.9 18.9 17.9 19.8C16.7 20.9 15.9 21.5 14.1 21.5C12.1 21.5 10.4 20.8 9 20.1C7.7 19.5 6.7 18.7 6.2 17.9C6.1 17.7 6 17.5 5.8 17.2C5.5 16.5 5 15.4 3.6 13.2C3.5 13.1 3.5 13 3.6 12.9C3.6 12.8 3.7 12.7 3.9 12.6C4.1 12.5 4.4 12.4 4.6 12.5C4.8 12.5 5.1 12.6 5.3 12.8L7 14.3C7 14.3 7.1 14.3 7.1 14.4C7.2 14.4 7.2 14.5 7.3 14.5C7.4 14.5 7.4 14.5 7.5 14.5H7.6C7.7 14.5 7.7 14.5 7.8 14.5C7.9 14.5 7.9 14.5 8 14.5C8.1 14.5 8.1 14.4 8.1 14.4C8.2 14.4 8.2 14.3 8.3 14.3C8.3 14.3 8.3 14.2 8.4 14.2C8.4 14.1 8.5 14.1 8.5 14C8.5 13.9 8.5 13.9 8.5 13.8V13.7V5.20001C8.5 5.00001 8.6 4.90001 8.7 4.70001C9 4.40001 9.5 4.40001 9.8 4.70001C9.9 4.80001 10 5.00001 10 5.20001V5.40001V10.4C10 11 10.4 11.4 11 11.4C11.6 11.4 12 11 12 10.4V5.40001V5.20001V3.20001C12 3.10001 12 3.00001 12 3.00001C12 2.90001 12.1 2.90001 12.1 2.80001C12.2 2.70001 12.3 2.70001 12.3 2.60001C12.5 2.50001 12.7 2.50001 12.9 2.60001C13 2.60001 13.1 2.70001 13.1 2.80001C13.2 2.90001 13.2 2.90001 13.3 3.00001C13.3 3.10001 13.3 3.20001 13.3 3.20001V10.6C13.3 11.2 13.7 11.6 14.3 11.6C14.9 11.6 15.3 11.2 15.3 10.6V5.20001C15.3 5.00001 15.4 4.90001 15.5 4.70001C15.8 4.40001 16.3 4.40001 16.6 4.70001C16.9 4.80001 17 5.00001 17 5.20001V11.5C17 12.1 17.4 12.5 18 12.5C18.6 12.5 19 12.1 19 11.5V8.00001C19 7.90001 19.1 7.80001 19.2 7.70001C19.3 7.60001 19.5 7.50001 19.8 7.50001C20.1 7.50001 20.3 7.60001 20.4 7.70001C20.5 7.80001 20.6 7.90001 20.6 8.00001C20.5 10.6 20.4 15.2 20.1 16.2Z" fill="#4A4A4A"/>
</svg>
