<svg width="24" height="24" viewBox="0 0 24 24" fill="none" xmlns="http://www.w3.org/2000/svg">
<path fill-rule="evenodd" clip-rule="evenodd" d="M18.3 2.59091C17.1402 2.59091 16.2 3.52704 16.2 4.68182C16.2 5.04478 16.2929 5.38615 16.4563 5.68363C16.467 5.69987 16.4774 5.71649 16.4874 5.7335C16.4973 5.75038 16.5066 5.76743 16.5155 5.78462C16.8861 6.37783 17.5467 6.77273 18.3 6.77273C19.4598 6.77273 20.4 5.8366 20.4 4.68182C20.4 3.52704 19.4598 2.59091 18.3 2.59091ZM15.316 7.62462C16.0771 8.38971 17.133 8.86364 18.3 8.86364C20.6196 8.86364 22.5 6.99137 22.5 4.68182C22.5 2.37226 20.6196 0.5 18.3 0.5C15.9804 0.5 14.1 2.37226 14.1 4.68182C14.1 5.07597 14.1548 5.45739 14.2571 5.81894L8.68403 9.05719C7.92289 8.29209 6.86703 7.81817 5.7 7.81817C3.3804 7.81817 1.5 9.69043 1.5 12C1.5 14.3095 3.3804 16.1818 5.7 16.1818C6.86725 16.1818 7.92329 15.7077 8.68447 14.9423L14.2585 18.1764C14.1552 18.5393 14.1 18.9223 14.1 19.3182C14.1 21.6277 15.9804 23.5 18.3 23.5C20.6196 23.5 22.5 21.6277 22.5 19.3182C22.5 17.0086 20.6196 15.1364 18.3 15.1364C17.1347 15.1364 16.0803 15.6089 15.3194 16.3719L9.74303 13.1365C9.84529 12.7751 9.9 12.3939 9.9 12C9.9 11.6058 9.84523 11.2244 9.74286 10.8629L15.316 7.62462ZM7.48478 10.8976C7.49355 10.9147 7.50283 10.9316 7.51264 10.9483C7.52252 10.9651 7.5328 10.9816 7.54346 10.9977C7.70702 11.2953 7.8 11.6368 7.8 12C7.8 12.3631 7.70704 12.7046 7.54352 13.0022C7.53271 13.0185 7.5223 13.0352 7.5123 13.0523C7.50261 13.0688 7.49342 13.0856 7.48473 13.1024C7.1142 13.6958 6.45343 14.0909 5.7 14.0909C4.5402 14.0909 3.6 13.1548 3.6 12C3.6 10.8452 4.5402 9.90908 5.7 9.90908C6.45346 9.90908 7.11425 10.3042 7.48478 10.8976ZM16.2 19.3182C16.2 18.9783 16.2814 18.6573 16.426 18.3736C16.4519 18.3396 16.4761 18.3037 16.4982 18.2659C16.5194 18.2296 16.5382 18.1926 16.5546 18.1551C16.9315 17.5955 17.5725 17.2273 18.3 17.2273C19.4598 17.2273 20.4 18.1634 20.4 19.3182C20.4 20.4729 19.4598 21.4091 18.3 21.4091C17.1402 21.4091 16.2 20.4729 16.2 19.3182Z" fill="#4A4A4A"/>
</svg>
