<svg width="24" height="24" viewBox="0 0 24 24" fill="none" xmlns="http://www.w3.org/2000/svg">
<path fill-rule="evenodd" clip-rule="evenodd" d="M3.78091 4.37534C3.4359 3.94408 2.8066 3.87416 2.37534 4.21917C1.94408 4.56418 1.87416 5.19347 2.21917 5.62473L7.31941 12L2.21917 18.3753C1.87416 18.8066 1.94408 19.4359 2.37534 19.7809C2.8066 20.1259 3.4359 20.056 3.78091 19.6247L8.60004 13.6008L13.4192 19.6247C13.7642 20.056 14.3935 20.1259 14.8247 19.7809C15.256 19.4359 15.3259 18.8066 14.9809 18.3753L9.88066 12L14.9809 5.62473C15.3259 5.19347 15.256 4.56418 14.8247 4.21917C14.3935 3.87416 13.7642 3.94408 13.4192 4.37534L8.60004 10.3993L3.78091 4.37534ZM20.4115 12.0107C19.9818 11.9561 19.5456 11.9867 19.1277 12.1006C18.7098 12.2146 18.3185 12.4098 17.976 12.675C17.6336 12.9402 17.3467 13.2703 17.1318 13.6463C16.8578 14.1259 17.0244 14.7367 17.5039 15.0107C17.9834 15.2847 18.5943 15.1181 18.8683 14.6386C18.9529 14.4906 19.0658 14.3606 19.2006 14.2562C19.3354 14.1518 19.4895 14.075 19.654 14.0302C19.8185 13.9853 19.9902 13.9733 20.1593 13.9948C20.3285 14.0163 20.4917 14.0709 20.6398 14.1555C20.7878 14.2401 20.9177 14.353 21.0221 14.4878C21.1265 14.6226 21.2034 14.7767 21.2482 14.9412C21.2931 15.1057 21.3051 15.2774 21.2836 15.4465C21.2657 15.5872 21.225 15.7237 21.1631 15.8508L17.2474 20.3259C16.9891 20.6212 16.9272 21.0403 17.0894 21.3976C17.2515 21.7549 17.6076 21.9844 18 21.9844H22.5613C23.1136 21.9844 23.5613 21.5367 23.5613 20.9844C23.5613 20.4321 23.1136 19.9844 22.5613 19.9844H20.2038L22.7437 17.0816C22.7876 17.0315 22.8263 16.9771 22.8594 16.9193C23.0743 16.5432 23.213 16.1284 23.2676 15.6988C23.3223 15.2691 23.2917 14.8328 23.1777 14.4149C23.0638 13.997 22.8686 13.6057 22.6034 13.2632C22.3382 12.9208 22.0081 12.6339 21.632 12.419C21.256 12.2041 20.8412 12.0654 20.4115 12.0107Z" fill="#4A4A4A"/>
</svg>
