<svg width="24" height="24" viewBox="0 0 24 24" fill="none" xmlns="http://www.w3.org/2000/svg">
<path d="M9.97553 13.304L8.50633 19.5481C8.37984 20.0857 8.7131 20.624 9.25071 20.7505C9.78831 20.877 10.3267 20.5438 10.4532 20.0062L11.6388 14.9672L9.97553 13.304Z" fill="#4A4A4A"/>
<path d="M12.7163 10.3879L13.984 5H19.9C20.4523 5 20.9 4.55228 20.9 4C20.9 3.44772 20.4523 3 19.9 3H5.90002C5.73423 3 5.57785 3.04035 5.44019 3.11176L7.32843 5H11.9294L11.053 8.7246L12.7163 10.3879Z" fill="#4A4A4A"/>
<path fill-rule="evenodd" clip-rule="evenodd" d="M1.79289 2.29289C2.18342 1.90237 2.81658 1.90237 3.20711 2.29289L21.2071 20.2929C21.5976 20.6834 21.5976 21.3166 21.2071 21.7071C20.8166 22.0976 20.1834 22.0976 19.7929 21.7071L1.79289 3.70711C1.40237 3.31658 1.40237 2.68342 1.79289 2.29289Z" fill="#4A4A4A"/>
</svg>
