<svg width="24" height="24" viewBox="0 0 24 24" fill="none" xmlns="http://www.w3.org/2000/svg">
<path fill-rule="evenodd" clip-rule="evenodd" d="M1.793 1.04C1.541 1.085 1.247 1.314 1.117 1.566C1.06028 1.67041 1.02568 1.78538 1.01536 1.90375C1.00503 2.02212 1.01921 2.14135 1.057 2.254C1.137 2.531 1.257 2.659 4.133 5.546L6.171 7.592L4.456 7.61C2.962 7.626 2.712 7.637 2.52 7.699C1.803 7.928 1.317 8.396 1.11 9.055C1.021 9.338 1.02 9.357 1.02 11.98C1.02 14.429 1.025 14.637 1.094 14.858C1.315 15.577 1.778 16.07 2.434 16.287C2.69 16.372 2.771 16.376 4.562 16.391L6.424 16.406L8.402 18.069C12.036 21.123 11.81 20.955 12.32 20.99C12.999 21.036 13.468 20.868 13.897 20.426C14.228 20.085 14.384 19.795 14.439 19.413C14.461 19.263 14.479 18.411 14.479 17.52L14.48 15.9L17.35 18.762C20.803 22.205 21.423 22.808 21.602 22.901C21.783 22.995 22.13 22.998 22.367 22.907C22.577 22.827 22.814 22.59 22.91 22.366C22.994 22.17 22.992 21.775 22.907 21.612C22.822 21.45 17.195 15.765 11.114 9.697C4.127 2.726 2.507 1.134 2.352 1.087C2.17184 1.02812 1.98045 1.01203 1.793 1.04ZM12.217 3.014C12.127 3.043 11.875 3.161 11.657 3.275C11.25 3.489 10.799 3.83 9.68999 4.767C9.01699 5.335 8.92 5.471 8.92 5.84C8.92 6.154 9.02699 6.333 9.47999 6.778C9.83899 7.131 9.886 7.165 9.95 7.115C9.988 7.085 10.343 6.79 10.738 6.46L11.994 5.411C12.29 5.165 12.55 4.974 12.572 4.988C12.599 5.004 12.604 5.71 12.587 7.096C12.558 9.402 12.564 9.493 12.8 9.959C12.956 10.27 13.547 10.896 13.744 10.961C14.018 11.052 14.362 10.879 14.442 10.609C14.473 10.504 14.482 9.576 14.472 7.48C14.459 4.508 14.459 4.499 14.37 4.261C14.259 3.967 14.029 3.725 13.545 3.392C12.999 3.017 12.576 2.897 12.217 3.014ZM20.098 7.553C19.803 7.691 19.56 8.071 19.56 8.393C19.56 8.436 19.721 8.801 19.918 9.205C20.309 10.006 20.466 10.436 20.606 11.08C20.687 11.453 20.698 11.611 20.698 12.48C20.699 13.255 20.684 13.535 20.629 13.82C20.506 14.445 20.284 15.062 19.914 15.802C19.461 16.707 19.458 16.74 19.81 17.109C20.083 17.394 20.235 17.48 20.472 17.48C20.879 17.48 21.221 17.238 21.487 16.76C21.822 16.159 22.232 15.036 22.397 14.268C22.568 13.473 22.592 12.134 22.454 11.165C22.312 10.169 21.685 8.517 21.216 7.902C20.952 7.557 20.434 7.395 20.098 7.553ZM12.511 16.367C12.505 17.701 12.488 18.806 12.472 18.821C12.441 18.852 12.434 18.847 10.14 16.959C7.859 15.081 7.153 14.513 7.07 14.49C7.004 14.472 7 14.32 7 12.016V9.562L7.11 9.504C7.17 9.473 7.318 9.363 7.437 9.26L7.654 9.074L10.088 11.507L12.523 13.94L12.511 16.367ZM5 12V14.4H3V9.6H5V12ZM16.68 9.707C16.236 9.935 16.092 10.373 16.331 10.76C16.393 10.859 16.534 11.048 16.646 11.18C16.758 11.312 16.897 11.519 16.955 11.64C17.046 11.83 17.06 11.912 17.06 12.24C17.06 12.696 16.95 13.079 16.714 13.444C16.629 13.575 16.56 13.723 16.56 13.773C16.56 13.878 17.625 14.96 17.728 14.96C17.831 14.96 17.978 14.818 18.189 14.512C18.467 14.11 18.616 13.803 18.74 13.38C18.8972 12.8161 18.9162 12.2227 18.7952 11.6499C18.6742 11.0772 18.4168 10.5421 18.045 10.09C17.791 9.785 17.513 9.634 17.164 9.611C16.933 9.596 16.873 9.608 16.68 9.707Z" fill="#4A4A4A"/>
</svg>
