<svg width="24" height="24" viewBox="0 0 24 24" fill="none" xmlns="http://www.w3.org/2000/svg">
<path d="M1.19995 21.8C1.19995 20.6954 2.09538 19.8 3.19995 19.8H6.59995V24H3.19995C2.09538 24 1.19995 23.1046 1.19995 22V21.8Z" fill="#46AFE6"/>
<rect x="6.59998" y="19.8" width="5.4" height="4.2" fill="#A348C0"/>
<rect x="12" y="19.8" width="5.4" height="4.2" fill="#FF3A55"/>
<path d="M17.3999 19.8H20.7999C21.9045 19.8 22.7999 20.6954 22.7999 21.8V22C22.7999 23.1046 21.9045 24 20.7999 24H17.3999V19.8Z" fill="#FF8D2E"/>
<path fill-rule="evenodd" clip-rule="evenodd" d="M17.2445 0.779721C16.0192 -0.335601 14.119 -0.243391 13.0002 0.98568L6.7105 7.87352C5.92337 8.73823 5.58361 9.85219 5.67825 10.9301L2.6476 17.0444C2.49404 17.3543 2.51143 17.7214 2.69359 18.0153C2.87575 18.3092 3.19682 18.4882 3.5426 18.4885L9.21558 18.4941C9.39985 18.4943 9.58058 18.4435 9.73783 18.3475L12.1796 16.856C13.2645 16.8515 14.3453 16.4088 15.1345 15.5418L21.4242 8.65397C22.543 7.4249 22.4567 5.52439 21.2315 4.40907L17.2445 0.779721ZM11.8472 14.8266L11.7978 14.7457L11.7099 14.7993C11.3906 14.7241 11.0856 14.5691 10.826 14.3328L8.31798 12.0498C8.05816 11.8133 7.87516 11.5238 7.77041 11.2126L7.81331 11.1261L7.7324 11.086C7.56425 10.4501 7.71278 9.74354 8.1895 9.21984L14.4792 2.33199C14.8521 1.9223 15.4855 1.89157 15.8939 2.26334L19.881 5.89269C20.2894 6.26446 20.3182 6.89796 19.9452 7.30766L13.6555 14.1955C13.1805 14.7174 12.4941 14.9318 11.8472 14.8266ZM6.73421 13.3032C6.80817 13.3823 6.88592 13.4592 6.96746 13.5334L9.47549 15.8164C9.5533 15.8873 9.63314 15.9544 9.71482 16.018L8.93576 16.4938L5.15456 16.4901L6.73421 13.3032Z" fill="#4A4A4A"/>
</svg>
