<svg width="24" height="24" viewBox="0 0 24 24" fill="none" xmlns="http://www.w3.org/2000/svg">
<g clip-path="url(#clip0_1758_15024)">
<path fill-rule="evenodd" clip-rule="evenodd" d="M7.91854 3.98107C8.43934 3.05684 9.30597 2.37736 10.3278 2.0921C11.3496 1.80684 12.4428 1.93917 13.367 2.45997C14.2913 2.98078 14.9708 3.8474 15.256 4.8692C15.4045 5.40114 15.9561 5.71198 16.4881 5.56347C17.02 5.41497 17.3309 4.86335 17.1824 4.33141C16.7545 2.79872 15.7352 1.49878 14.3489 0.717571C12.9626 -0.0636398 11.3227 -0.262133 9.78997 0.165759C8.25728 0.59365 6.95735 1.61288 6.17614 2.99922C5.39492 4.38556 5.19643 6.02545 5.62432 7.55814L6.02686 9.00002H5C3.34315 9.00002 2 10.3432 2 12V19C2 20.6569 3.34315 22 5 22H19C20.6569 22 22 20.6569 22 19V12C22 10.3432 20.6569 9.00002 19 9.00002H8.1018C8.09785 8.98223 8.09341 8.96445 8.08845 8.94669L7.55066 7.02035C7.2654 5.99856 7.39773 4.9053 7.91854 3.98107ZM4 12C4 11.4477 4.44772 11 5 11H19C19.5523 11 20 11.4477 20 12V19C20 19.5523 19.5523 20 19 20H5C4.44772 20 4 19.5523 4 19V12Z" fill="#4A4A4A"/>
</g>
<defs>
<clipPath id="clip0_1758_15024">
<rect width="24" height="24" fill="white"/>
</clipPath>
</defs>
</svg>
