<svg width="250" height="195" viewBox="0 0 250 195" fill="none" xmlns="http://www.w3.org/2000/svg">
<g clip-path="url(#clip0_3597_148670)">
<rect width="250" height="194.203" fill="white"/>
<path d="M37.2812 47.4021V44.3794L37.556 44.1047H73.4838L73.7586 44.3794V47.2647C73.7586 48.0547 73.2777 48.4325 72.316 48.4325H68.5721C65.4121 48.4325 63.8321 49.3942 63.8321 51.3177C63.8589 52.7259 64.1992 54.1105 64.8282 55.3707C69.6369 67.1635 80.3076 90.5315 96.8403 125.475H97.699L113.602 93.5655C112.366 90.6803 111.301 88.3447 110.442 86.4899L99.4851 64.8851L96.5999 59.1147C95.1687 56.0622 93.5275 53.1127 91.6882 50.2873C90.4039 49.0849 88.7074 48.421 86.9482 48.4325C85.5742 48.2264 84.9216 47.8829 84.9216 47.4021V44.3794L85.3338 44.1047H113.774H114.495V47.1273C114.495 47.9173 114.014 48.2951 113.052 48.2951L110.889 48.5699C109.945 48.6893 109.021 48.9318 108.141 49.2912C107.843 49.4618 107.611 49.7265 107.48 50.0436C107.35 50.3607 107.328 50.7123 107.419 51.0429C107.504 51.8783 107.7 52.6985 108.003 53.4816C108.278 54.2373 108.965 55.7486 109.996 57.9468L120.54 79.586L132.219 56.2294C133.764 53.1381 134.005 51.0773 132.94 50.0125C131.875 48.9477 130.57 48.7073 127.616 48.4325H126.311C126.122 48.4367 125.935 48.3989 125.762 48.3216C125.59 48.2444 125.437 48.1297 125.315 47.986C125.006 47.986 124.868 47.6081 124.868 47.1273V44.3794L125.315 44.1047C130.787 44.1047 139.729 44.1047 152.14 44.1047L152.415 44.3794V47.2647C152.415 48.0547 151.969 48.4325 151.11 48.4325C149.647 48.4293 148.191 48.6258 146.782 49.0164C145.757 49.5217 144.907 50.3235 144.343 51.3177C142.762 53.5169 141.316 55.8111 140.016 58.1873L124.868 86.4555L124.422 87.486L142.901 125.269L144.034 125.681L173.196 56.3325C174.329 53.619 174.192 51.6612 172.749 50.4247C171.16 49.1366 169.16 48.4657 167.116 48.5355H164.368C164.202 48.5227 164.041 48.4765 163.893 48.3998C163.746 48.3231 163.615 48.2174 163.509 48.089C163.338 48.0205 163.19 47.9021 163.086 47.749C162.982 47.596 162.926 47.4154 162.926 47.2303V44.3451L163.372 44.0703H196.415L196.689 44.3451V47.2303C196.689 47.9173 196.243 48.3294 195.384 48.5355C191.998 48.3883 188.656 49.3534 185.87 51.2834C183.671 53.1838 181.982 55.6044 180.958 58.3247L145.03 140.004C144.448 141.747 143.33 143.261 141.836 144.332C141.329 144.676 140.731 144.86 140.119 144.86C139.506 144.86 138.908 144.676 138.401 144.332C136.909 143.203 135.727 141.714 134.966 140.004C131.28 132.791 125.418 120.197 117.38 102.221C107.282 122.967 100.985 135.653 98.489 140.279C94.5505 147.148 91.1157 147.148 88.1847 140.279C85.1163 133.066 78.8764 119.326 69.4651 99.0612C60.0538 78.796 53.8025 65.0568 50.7112 57.8438C49.9092 55.0772 48.5276 52.5131 46.6582 50.3216C44.387 49.0098 41.7912 48.3668 39.1703 48.4668C37.8308 48.2607 37.1438 47.9173 37.1438 47.4364L37.2812 47.4021Z" fill="#823AA1"/>
<g filter="url(#filter0_d_3597_148670)">
<ellipse cx="169.707" cy="113.765" rx="44.2029" ry="44.2029" fill="white" fill-opacity="0.85"/>
<path d="M241.707 177.101L215.011 150.405C214.308 149.703 213.482 149.21 212.605 148.92C220.41 139.391 225.098 127.21 225.098 113.934C225.098 95.9054 216.453 79.891 203.091 69.8112C198.323 66.217 192.946 63.3837 187.149 61.4707C181.707 59.6808 175.903 58.6953 169.866 58.6953C165.678 58.6953 161.598 59.1808 157.678 60.0649C152.634 61.2026 147.852 63.0142 143.432 65.4272C135.272 69.8837 128.374 76.3402 123.366 84.1373C121.403 87.1953 119.736 90.4489 118.403 93.8765C115.975 100.094 114.634 106.855 114.634 113.934C114.634 144.442 139.359 169.166 169.866 169.166C183.142 169.166 195.323 164.485 204.852 156.674C205.142 157.55 205.642 158.384 206.337 159.079L233.033 185.775C235.432 188.174 239.316 188.174 241.714 185.775C244.113 183.376 244.113 179.492 241.714 177.094L241.707 177.101ZM169.859 156.891C146.134 156.891 126.903 137.659 126.903 113.934C126.903 109.203 127.678 104.652 129.091 100.391C130.265 96.8475 131.888 93.5141 133.895 90.4489C136.482 86.4924 139.707 82.9924 143.424 80.0866C147.62 76.804 152.432 74.2895 157.671 72.746C161.533 71.6011 165.627 70.9779 169.859 70.9779C193.584 70.9779 212.816 90.2098 212.816 113.934C212.816 137.659 193.584 156.891 169.859 156.891Z" fill="#B9E3F8"/>
</g>
</g>
<defs>
<filter id="filter0_d_3597_148670" x="108.634" y="54.6953" width="140.879" height="140.875" filterUnits="userSpaceOnUse" color-interpolation-filters="sRGB">
<feFlood flood-opacity="0" result="BackgroundImageFix"/>
<feColorMatrix in="SourceAlpha" type="matrix" values="0 0 0 0 0 0 0 0 0 0 0 0 0 0 0 0 0 0 127 0" result="hardAlpha"/>
<feOffset dy="2"/>
<feGaussianBlur stdDeviation="3"/>
<feComposite in2="hardAlpha" operator="out"/>
<feColorMatrix type="matrix" values="0 0 0 0 0 0 0 0 0 0 0 0 0 0 0 0 0 0 0.15 0"/>
<feBlend mode="normal" in2="BackgroundImageFix" result="effect1_dropShadow_3597_148670"/>
<feBlend mode="normal" in="SourceGraphic" in2="effect1_dropShadow_3597_148670" result="shape"/>
</filter>
<clipPath id="clip0_3597_148670">
<rect width="250" height="194.203" fill="white"/>
</clipPath>
</defs>
</svg>
