<svg width="24" height="24" viewBox="0 0 24 24" fill="none" xmlns="http://www.w3.org/2000/svg">
<path d="M2 4C2 3.44772 2.44772 3 3 3H21C21.5523 3 22 3.44772 22 4C22 4.55228 21.5523 5 21 5H3C2.44772 5 2 4.55228 2 4Z" fill="#4A4A4A"/>
<path d="M2 12C2 11.4477 2.38376 11 2.85714 11H13.1429C13.6162 11 14 11.4477 14 12C14 12.5523 13.6162 13 13.1429 13H2.85714C2.38376 13 2 12.5523 2 12Z" fill="#4A4A4A"/>
<path d="M2 20C2 19.4477 2.44772 19 3 19H19C19.5523 19 20 19.4477 20 20C20 20.5523 19.5523 21 19 21H3C2.44772 21 2 20.5523 2 20Z" fill="#4A4A4A"/>
</svg>
