<svg width="24" height="24" viewBox="0 0 24 24" fill="none" xmlns="http://www.w3.org/2000/svg">
<path fill-rule="evenodd" clip-rule="evenodd" d="M4.35294 2C3.05345 2 2 3.05345 2 4.35294V19.6471C2 20.9466 3.05345 22 4.35294 22H19.6471C20.9466 22 22 20.9466 22 19.6471V4.35294C22 3.05345 20.9466 2 19.6471 2H4.35294ZM17.978 6.9251C18.5067 7.30276 18.6291 8.03753 18.2515 8.56625L12.3691 16.8015C12.1546 17.1019 11.8114 17.2842 11.4424 17.2938C11.0733 17.3034 10.7212 17.1392 10.4913 16.8504L6.96189 12.416C6.55726 11.9076 6.64137 11.1675 7.14975 10.7628C7.57418 10.425 8.16015 10.4279 8.57755 10.7339C8.84455 10.7547 9.10253 10.882 9.28246 11.1081L11.4569 13.84L15.6863 7.91884C15.7822 7.78457 15.9052 7.68113 16.0425 7.61064L16.3368 7.19863C16.7145 6.66991 17.4492 6.54745 17.978 6.9251Z" fill="#4A4A4A"/>
</svg>
