<svg width="24" height="24" viewBox="0 0 24 24" fill="none" xmlns="http://www.w3.org/2000/svg">
  <path fill-rule="evenodd" clip-rule="evenodd" d="M3 4.2222C3 3.5472 3.5472 3 4.2222 3H19.7776C20.4526 3 20.9998 3.5472 20.9998 4.2222V5.66626H3V4.2222ZM1 6.66626V4.2222C1 2.44263 2.44263 1 4.2222 1H19.7776C21.5571 1 22.9998 2.44263 22.9998 4.2222V6.66626V19.7776C22.9998 21.5571 21.5571 22.9998 19.7776 22.9998H4.2222C2.44263 22.9998 1 21.5571 1 19.7776V6.66626ZM20.9998 7.66626V19.7776C20.9998 20.4526 20.4526 20.9998 19.7776 20.9998H4.2222C3.5472 20.9998 3 20.4526 3 19.7776V7.66626H20.9998Z" fill="#4A4A4A"/>
</svg>