<svg width="24" height="24" viewBox="0 0 24 24" fill="none" xmlns="http://www.w3.org/2000/svg">
  <path fill-rule="evenodd" clip-rule="evenodd" d="M3 4.2222C3 3.5472 3.5472 3 4.2222 3H6V6C6 6.55228 6.44772 7 7 7C7.55228 7 8 6.55228 8 6V3H19.7776C20.4526 3 20.9998 3.5472 20.9998 4.2222V19.7776C20.9998 20.4526 20.4526 20.9998 19.7776 20.9998H8V18C8 17.4477 7.55228 17 7 17C6.44772 17 6 17.4477 6 18V20.9998H4.2222C3.5472 20.9998 3 20.4526 3 19.7776V4.2222ZM6.97812 22.9998H4.2222C2.44263 22.9998 1 21.5571 1 19.7776V4.2222C1 2.44263 2.44263 1 4.2222 1H7H19.7776C21.5571 1 22.9998 2.44263 22.9998 4.2222V19.7776C22.9998 21.5571 21.5571 22.9998 19.7776 22.9998H7.02188L7 23L6.97812 22.9998ZM7 9C7.55228 9 8 9.44771 8 10V14C8 14.5523 7.55228 15 7 15C6.44772 15 6 14.5523 6 14V10C6 9.44771 6.44772 9 7 9ZM11.3179 8.81804C11.7084 8.42752 12.3416 8.42752 12.7321 8.81804L14.4999 10.5858L16.2675 8.81816C16.6581 8.42764 17.2912 8.42764 17.6817 8.81816C18.0723 9.20869 18.0723 9.84185 17.6817 10.2324L15.9141 12L17.6818 13.7678C18.0724 14.1583 18.0724 14.7915 17.6818 15.182C17.2913 15.5725 16.6582 15.5725 16.2676 15.182L14.4999 13.4142L12.7322 15.182C12.3416 15.5725 11.7085 15.5725 11.3179 15.182C10.9274 14.7914 10.9274 14.1583 11.3179 13.7677L13.0857 12L11.3179 10.2323C10.9274 9.84173 10.9274 9.20856 11.3179 8.81804Z" fill="#4A4A4A"/>
</svg>