<svg width="24" height="24" viewBox="0 0 24 24" fill="none" xmlns="http://www.w3.org/2000/svg">
  <path fill-rule="evenodd" clip-rule="evenodd" d="M3 4.2222C3 3.5472 3.5472 3 4.2222 3H6V20.9998H4.2222C3.5472 20.9998 3 20.4526 3 19.7776V4.2222ZM8 20.9998H19.7776C20.4526 20.9998 20.9998 20.4526 20.9998 19.7776V4.2222C20.9998 3.5472 20.4526 3 19.7776 3H8V20.9998ZM4.2222 1C2.44263 1 1 2.44263 1 4.2222V19.7776C1 21.5571 2.44263 22.9998 4.2222 22.9998H19.7776C21.5571 22.9998 22.9998 21.5571 22.9998 19.7776V4.2222C22.9998 2.44263 21.5571 1 19.7776 1H4.2222Z" fill="#4A4A4A"/>
</svg>