<svg width="24" height="24" viewBox="0 0 24 24" fill="none" xmlns="http://www.w3.org/2000/svg">
  <path fill-rule="evenodd" clip-rule="evenodd" d="M3 4.2222C3 3.5472 3.5472 3 4.2222 3H19.7776C20.4526 3 20.9998 3.5472 20.9998 4.2222V6H18C17.4477 6 17 6.44772 17 7C17 7.55228 17.4477 8 18 8H20.9998V19.7776C20.9998 20.4526 20.4526 20.9998 19.7776 20.9998H4.2222C3.5472 20.9998 3 20.4526 3 19.7776V8H6C6.55228 8 7 7.55228 7 7C7 6.44772 6.55228 6 6 6H3V4.2222ZM22.9998 4.2222V6.97812L23 7L22.9998 7.02188V19.7776C22.9998 21.5571 21.5571 22.9998 19.7776 22.9998H4.2222C2.44263 22.9998 1 21.5571 1 19.7776V7V4.2222C1 2.44263 2.44263 1 4.2222 1H19.7776C21.5571 1 22.9998 2.44263 22.9998 4.2222ZM10.2321 11.3179C9.84157 10.9273 9.20841 10.9273 8.81789 11.3179C8.42736 11.7084 8.42736 12.3415 8.81789 12.7321L10.5856 14.4998L8.81795 16.2674C8.42742 16.6579 8.42742 17.2911 8.81795 17.6816C9.20847 18.0721 9.84164 18.0721 10.2322 17.6816L11.9998 15.914L13.7676 17.6818C14.1582 18.0723 14.7913 18.0723 15.1818 17.6818C15.5724 17.2913 15.5724 16.6581 15.1818 16.2676L13.414 14.4998L15.1817 12.732C15.5723 12.3415 15.5723 11.7083 15.1817 11.3178C14.7912 10.9273 14.1581 10.9273 13.7675 11.3178L11.9998 13.0855L10.2321 11.3179ZM10 6C9.44771 6 9 6.44772 9 7C9 7.55228 9.44771 8 10 8H14C14.5523 8 15 7.55228 15 7C15 6.44772 14.5523 6 14 6H10Z" fill="#4A4A4A"/>
</svg>