<svg width="24" height="24" viewBox="0 0 24 24" fill="none" xmlns="http://www.w3.org/2000/svg">
<path d="M12.679 2.18409C12.543 1.7757 12.161 1.50014 11.7306 1.5C11.3001 1.49986 10.9179 1.77516 10.7816 2.18346C10.3102 3.59633 9.69783 4.92394 9.0462 6.21777L10.5338 7.70541C10.9412 6.91222 11.3497 6.08807 11.7294 5.23538C12.3088 6.53866 12.9557 7.77525 13.5632 8.93654C13.826 9.4388 14.0815 9.92717 14.3209 10.4006C14.6834 11.1176 15.0082 11.7985 15.2802 12.4518L18.1151 15.2866C17.9193 13.3104 17.056 11.3776 16.1057 9.49808C15.841 8.97469 15.5684 8.45302 15.2947 7.9295C14.3327 6.08885 13.3587 4.22535 12.679 2.18409Z" fill="#4A4A4A"/>
<path d="M17.0819 19.9103L15.6225 18.451C15.4729 18.7391 15.2905 19.0063 15.0739 19.2444C14.4304 19.9514 13.3968 20.5 11.7302 20.5C10.0636 20.5 9.02935 19.9514 8.38515 19.2441C7.71874 18.5124 7.37612 17.5061 7.31104 16.4616C7.21466 14.9149 7.75153 13.2993 8.6213 11.4497L7.12327 9.9517C6.0615 12.0998 5.17348 14.3163 5.31491 16.586C5.40029 17.9563 5.85668 19.4381 6.90647 20.5908C7.97847 21.7678 9.57756 22.5 11.7302 22.5C13.8829 22.5 15.4817 21.7678 16.5531 20.5905C16.7497 20.3743 16.9255 20.1467 17.0819 19.9103Z" fill="#4A4A4A"/>
<path fill-rule="evenodd" clip-rule="evenodd" d="M2.79289 2.79289C3.18342 2.40237 3.81658 2.40237 4.20711 2.79289L21.2071 19.7929C21.5976 20.1834 21.5976 20.8166 21.2071 21.2071C20.8166 21.5976 20.1834 21.5976 19.7929 21.2071L2.79289 4.20711C2.40237 3.81658 2.40237 3.18342 2.79289 2.79289Z" fill="#4A4A4A"/>
</svg>
