<svg width="20" height="16" viewBox="0 0 20 16" fill="none" xmlns="http://www.w3.org/2000/svg">
<path fill-rule="evenodd" clip-rule="evenodd" d="M1.66667 0.5C0.746193 0.5 0 1.24619 0 2.16667V4.07843C0 4.53867 0.373096 4.91176 0.833333 4.91176C1.29357 4.91176 1.66667 4.53867 1.66667 4.07843V2.16667L3.75 2.16667C4.21024 2.16667 4.58333 1.79357 4.58333 1.33333C4.58333 0.873096 4.21024 0.5 3.75 0.5H1.66667ZM7.5 0.5C7.03976 0.5 6.66667 0.873096 6.66667 1.33333C6.66667 1.79357 7.03976 2.16667 7.5 2.16667H12.0833C12.5436 2.16667 12.9167 1.79357 12.9167 1.33333C12.9167 0.873096 12.5436 0.5 12.0833 0.5H7.5ZM16.25 0.5C15.7898 0.5 15.4167 0.873096 15.4167 1.33333C15.4167 1.79357 15.7898 2.16667 16.25 2.16667H18.3333V4.07843C18.3333 4.53867 18.7064 4.91176 19.1667 4.91176C19.6269 4.91176 20 4.53867 20 4.07843V2.16667C20 1.24619 19.2538 0.5 18.3333 0.5H16.25ZM20 6.82353C20 6.36329 19.6269 5.9902 19.1667 5.9902C18.7064 5.9902 18.3333 6.36329 18.3333 6.82353V9.17647C18.3333 9.63671 18.7064 10.0098 19.1667 10.0098C19.6269 10.0098 20 9.63671 20 9.17647V6.82353ZM20 11.9216C20 11.4613 19.6269 11.0882 19.1667 11.0882C18.7064 11.0882 18.3333 11.4613 18.3333 11.9216V13.8333H16.25C15.7898 13.8333 15.4167 14.2064 15.4167 14.6667C15.4167 15.1269 15.7898 15.5 16.25 15.5H18.3333C19.2538 15.5 20 14.7538 20 13.8333V11.9216ZM0 8C0 7.07952 0.746192 6.33333 1.66667 6.33333H10.3807C11.3012 6.33333 12.0473 7.07952 12.0473 8V13.8333C12.0473 14.7538 11.3012 15.5 10.3807 15.5H3.43253H3.42398H1.66667C0.746192 15.5 0 14.7538 0 13.8333V8ZM10.3807 13.8333H5.32537L8.01325 10.9069L10.3807 12.9731V13.8333ZM10.3807 8V10.7609L8.49706 9.11696C8.15651 8.81974 7.64111 8.8482 7.33535 9.18109L3.06239 13.8333H1.66667V8H10.3807Z" fill="#4A4A4A"/>
</svg>
