<svg width="24" height="24" viewBox="0 0 24 24" fill="none" xmlns="http://www.w3.org/2000/svg">
<path fill-rule="evenodd" clip-rule="evenodd" d="M4.2222 5.037C3.32743 5.037 2.99999 5.592 2.99999 5.82917V18.5038C2.99999 18.741 3.32743 19.296 4.2222 19.296H5.58632L15.293 9.40974C15.6835 9.01199 16.3166 9.01199 16.7072 9.40974L20.9999 13.7819V5.82917C20.9999 5.592 20.6724 5.037 19.7777 5.037H4.2222ZM22.9999 16.2236V5.82917C22.9999 4.06632 21.3375 3 19.7777 3H4.2222C2.66239 3 1 4.06632 1 5.82917V18.5038C1 20.2667 2.66239 21.333 4.2222 21.333H5.97113C5.99045 21.3336 6.00978 21.3336 6.0291 21.333H19.7777C21.3375 21.333 22.9999 20.2667 22.9999 18.5038V16.2583C23.0001 16.2467 23.0001 16.2352 22.9999 16.2236ZM20.9999 16.6627L16.0001 11.5703L8.41473 19.296H19.7777C20.6724 19.296 20.9999 18.741 20.9999 18.5038V16.6627ZM8.00011 8.09225C7.44782 8.09225 7.00011 8.54825 7.00011 9.11075C7.00011 9.67325 7.44782 10.1293 8.00011 10.1293C8.55239 10.1293 9.0001 9.67325 9.0001 9.11075C9.0001 8.54825 8.55239 8.09225 8.00011 8.09225ZM5.00012 9.11075C5.00012 7.42324 6.34326 6.05525 8.00011 6.05525C9.65695 6.05525 11.0001 7.42324 11.0001 9.11075C11.0001 10.7983 9.65695 12.1663 8.00011 12.1663C6.34326 12.1663 5.00012 10.7983 5.00012 9.11075Z" fill="#4A4A4A"/>
</svg>
