<svg width="24" height="24" viewBox="0 0 24 24" fill="none" xmlns="http://www.w3.org/2000/svg">
<g clip-path="url(#clip0_2243_15700)">
<path fill-rule="evenodd" clip-rule="evenodd" d="M5.33293 13.3335C4.62567 14.0407 4.22834 15 4.22834 16.0002C4.22834 17.0004 4.62567 17.9596 5.33293 18.6669C6.04019 19.3742 6.99944 19.7715 7.99966 19.7715C8.49491 19.7715 8.98532 19.674 9.44288 19.4844C9.90043 19.2949 10.3162 19.0171 10.6664 18.6669L12.6664 16.6669C13.0346 16.2987 13.6316 16.2987 13.9998 16.6669C14.368 17.0351 14.368 17.632 13.9998 18.0002L11.9997 20.0003C11.4744 20.5256 10.8508 20.9423 10.1645 21.2266C9.47815 21.5108 8.74254 21.6572 7.99966 21.6572C6.49933 21.6572 5.06046 21.0612 3.99957 20.0003C2.93868 18.9394 2.34268 17.5005 2.34268 16.0002C2.34268 14.4999 2.93868 13.061 3.99957 12.0001L5.99961 10.0001C6.36781 9.63185 6.96478 9.63185 7.33298 10.0001C7.70117 10.3682 7.70117 10.9652 7.33298 11.3334L5.33293 13.3335ZM9.9997 7.33333C9.6315 6.96513 9.6315 6.36816 9.9997 5.99996L11.9997 3.99992C12.525 3.47462 13.1487 3.05793 13.835 2.77364C14.5213 2.48935 15.2569 2.34303 15.9998 2.34303C16.7427 2.34303 17.4783 2.48935 18.1647 2.77364C18.851 3.05793 19.4746 3.47462 19.9999 3.99992C20.5252 4.52522 20.9419 5.14884 21.2262 5.83517C21.5105 6.52151 21.6568 7.25712 21.6568 8.00001C21.6568 8.74289 21.5105 9.4785 21.2262 10.1648C20.9419 10.8512 20.5252 11.4748 19.9999 12.0001L17.9999 14.0001C17.6317 14.3683 17.0347 14.3683 16.6665 14.0001C16.2983 13.6319 16.2983 13.035 16.6665 12.6668L18.6666 10.6667C19.0168 10.3165 19.2946 9.90078 19.4841 9.44323C19.6736 8.98567 19.7712 8.49526 19.7712 8.00001C19.7712 7.50475 19.6736 7.01434 19.4841 6.55679C19.2946 6.09923 19.0168 5.68348 18.6666 5.33328C18.3164 4.98308 17.9006 4.70529 17.4431 4.51576C16.9855 4.32624 16.4951 4.22869 15.9998 4.22869C15.5046 4.22869 15.0142 4.32624 14.5566 4.51576C14.0991 4.70529 13.6833 4.98308 13.3331 5.33328L11.3331 7.33333C10.9649 7.70152 10.3679 7.70152 9.9997 7.33333Z" fill="#4A4A4A"/>
<path fill-rule="evenodd" clip-rule="evenodd" d="M8.46425 15.5355C8.07372 15.145 8.07372 14.5118 8.46425 14.1213L14.1211 8.46447C14.5116 8.07394 15.1448 8.07394 15.5353 8.46447C15.9258 8.85499 15.9258 9.48816 15.5353 9.87868L9.87846 15.5355C9.48794 15.9261 8.85477 15.9261 8.46425 15.5355Z" fill="#4A4A4A"/>
</g>
<defs>
<clipPath id="clip0_2243_15700">
<rect width="24" height="24" fill="white"/>
</clipPath>
</defs>
</svg>
