<svg width="24" height="24" viewBox="0 0 24 24" fill="none" xmlns="http://www.w3.org/2000/svg">
  <g clip-path="url(#clip0_4368_4414)">
    <path d="M3.44447 2C2.55489 2 2 2.63477 2 3.22225V5.11119C2 5.66348 1.55228 6.11119 1 6.11119C0.447715 6.11119 0 5.66348 0 5.11119V3.22225C0 1.3551 1.63397 0 3.44447 0H20.5558C22.3663 0 24.0003 1.3551 24.0003 3.22225V5.11119C24.0003 5.66348 23.5525 6.11119 23.0003 6.11119C22.448 6.11119 22.0003 5.66348 22.0003 5.11119V3.22225C22.0003 2.63478 21.4454 2 20.5558 2H3.44447Z" fill="#4A4A4A"/>
    <path d="M1 17.8891C1.55228 17.8891 2 18.3368 2 18.8891V20.778C2 21.3655 2.55489 22.0003 3.44447 22.0003H20.5558C21.4454 22.0003 22.0003 21.3655 22.0003 20.778V18.8891C22.0003 18.3368 22.448 17.8891 23.0003 17.8891C23.5525 17.8891 24.0003 18.3368 24.0003 18.8891V20.778C24.0003 22.6452 22.3663 24.0003 20.5558 24.0003H3.44447C1.63397 24.0003 0 22.6452 0 20.778V18.8891C0 18.3368 0.447715 17.8891 1 17.8891Z" fill="#4A4A4A"/>
    <path d="M0 12C0 11.4477 0.447715 11 1 11H6.58579L4.29289 8.70711C3.90237 8.31658 3.90237 7.68342 4.29289 7.29289C4.68342 6.90237 5.31658 6.90237 5.70711 7.29289L9.70711 11.2929C10.0976 11.6834 10.0976 12.3166 9.70711 12.7071L5.70711 16.7071C5.31658 17.0976 4.68342 17.0976 4.29289 16.7071C3.90237 16.3166 3.90237 15.6834 4.29289 15.2929L6.58579 13H1C0.447715 13 0 12.5523 0 12Z" fill="#4A4A4A"/>
    <path d="M23 13C23.5523 13 24 12.5523 24 12C24 11.4477 23.5523 11 23 11H17.4142L19.7071 8.70711C20.0976 8.31658 20.0976 7.68342 19.7071 7.29289C19.3166 6.90237 18.6834 6.90237 18.2929 7.29289L14.2929 11.2929C13.9024 11.6834 13.9024 12.3166 14.2929 12.7071L18.2929 16.7071C18.6834 17.0976 19.3166 17.0976 19.7071 16.7071C20.0976 16.3166 20.0976 15.6834 19.7071 15.2929L17.4142 13H23Z" fill="#4A4A4A"/>
  </g>
  <defs>
    <clipPath id="clip0_4368_4414">
      <rect width="24" height="24" fill="white"/>
    </clipPath>
  </defs>
</svg>