<svg xmlns="http://www.w3.org/2000/svg" width="20" height="20" viewBox="0 0 20 20" fill="none">
  <g clip-path="url(#clip0_3054_4806)">
    <path d="M19.1667 0H15.8334L0.833374 20H4.16671L19.1667 0Z" fill="#E13A3A"/>
  </g>
  <path d="M0.5 4C0.5 2.067 2.067 0.5 4 0.5H16C17.933 0.5 19.5 2.067 19.5 4V16C19.5 17.933 17.933 19.5 16 19.5H4C2.067 19.5 0.5 17.933 0.5 16V4Z" stroke="#E4E4E4"/>
  <defs>
    <clipPath id="clip0_3054_4806">
      <path d="M0 4C0 1.79086 1.79086 0 4 0H16C18.2091 0 20 1.79086 20 4V16C20 18.2091 18.2091 20 16 20H4C1.79086 20 0 18.2091 0 16V4Z" fill="white"/>
    </clipPath>
  </defs>
</svg>