<svg width="24" height="24" viewBox="0 0 24 24" fill="none" xmlns="http://www.w3.org/2000/svg">
<path fill-rule="evenodd" clip-rule="evenodd" d="M2.56679 2.2849C2.27619 2.56894 2.18637 3.0006 2.33955 3.37699L10.1095 22.4688C10.2637 22.8476 10.6331 23.0944 11.0421 23.0918C11.4511 23.0892 11.8173 22.8378 11.9667 22.4571L14.9924 14.7452L22.3423 12.0672C22.7269 11.9271 22.9873 11.5667 22.9995 11.1576C23.0118 10.7484 22.7735 10.3731 22.398 10.2102L3.66378 2.08264C3.29099 1.92091 2.8574 2.00085 2.56679 2.2849ZM19.3009 11.0467L13.8839 13.0204C13.6144 13.1186 13.4 13.3278 13.2953 13.5948L11.0188 19.3972L5.11569 4.89264L19.3009 11.0467Z" fill="#4A4A4A"/>
</svg>
