<svg width="24" height="24" viewBox="0 0 24 24" fill="none" xmlns="http://www.w3.org/2000/svg">
<path fill-rule="evenodd" clip-rule="evenodd" d="M23 12C23 18.0751 18.0751 23 12 23C5.92487 23 1 18.0751 1 12C1 5.92487 5.92487 1 12 1C18.0751 1 23 5.92487 23 12ZM10 6H8C7.44772 6 7 6.44771 7 7V17C7 17.5523 7.44772 18 8 18H10C10.5523 18 11 17.5523 11 17V7C11 6.44772 10.5523 6 10 6ZM14 6H16C16.5523 6 17 6.44772 17 7V17C17 17.5523 16.5523 18 16 18H14C13.4477 18 13 17.5523 13 17V7C13 6.44771 13.4477 6 14 6Z" fill="#4A4A4A"/>
</svg>
