<svg width="24" height="24" viewBox="0 0 24 24" fill="none" xmlns="http://www.w3.org/2000/svg">
<path fill-rule="evenodd" clip-rule="evenodd" d="M4.58297 7.31248L3.97649 3.87021C3.881 3.32824 3.36459 2.96636 2.82305 3.06192C2.28151 3.15749 1.91991 3.67431 2.0154 4.21628L3.02795 9.96331C3.12344 10.5053 3.63985 10.8672 4.18139 10.7716L9.92387 9.75825C10.4654 9.66268 10.827 9.14586 10.7315 8.60389C10.636 8.06192 10.1196 7.70003 9.57808 7.7956L6.27742 8.37805C6.99887 6.88215 8.18226 5.65547 9.65543 4.88161C11.1966 4.07199 12.9653 3.80513 14.6765 4.124C16.3878 4.44288 17.9419 5.32893 19.0887 6.63944C20.2355 7.94995 20.9081 9.60863 20.9983 11.3483C21.0884 13.088 20.5908 14.8074 19.5856 16.2296C18.5804 17.6518 17.1262 18.6939 15.4571 19.1882C13.788 19.6825 12.0012 19.6002 10.3846 18.9544C8.76795 18.3087 7.41556 17.1372 6.54524 15.6285C6.27029 15.1519 5.66135 14.9886 5.18513 15.2638C4.7089 15.539 4.54574 16.1484 4.82068 16.625C5.9146 18.5212 7.61444 19.9938 9.64641 20.8054C11.6784 21.617 13.9242 21.7205 16.0221 21.0993C18.12 20.478 19.9479 19.168 21.2113 17.3805C22.4748 15.5929 23.1002 13.4317 22.9869 11.2451C22.8736 9.05848 22.0282 6.97366 20.5868 5.32645C19.1454 3.67925 17.1919 2.56556 15.0411 2.16475C12.8902 1.76395 10.6671 2.09938 8.72993 3.117C6.94412 4.0551 5.49709 5.5226 4.58297 7.31248Z" fill="#4A4A4A"/>
</svg>
