<svg width="24" height="24" viewBox="0 0 24 24" fill="none" xmlns="http://www.w3.org/2000/svg">
<path fill-rule="evenodd" clip-rule="evenodd" d="M4.58291 7.31251L3.97643 3.87024C3.88094 3.32827 3.36453 2.96639 2.82299 3.06195C2.28145 3.15752 1.91985 3.67434 2.01534 4.21631L3.02789 9.96334C3.12338 10.5053 3.63979 10.8672 4.18133 10.7716L9.92381 9.75828C10.4653 9.66271 10.8269 9.14589 10.7315 8.60392C10.636 8.06195 10.1196 7.70007 9.57801 7.79563L6.27736 8.37809C6.99881 6.88218 8.1822 5.6555 9.65536 4.88164C11.1966 4.07202 12.9653 3.80516 14.6765 4.12404C16.3877 4.44291 17.9419 5.32896 19.0886 6.63947C20.2354 7.94999 20.9081 9.60866 20.9982 11.3483C21.0883 13.088 20.5907 14.8074 19.5855 16.2296C18.5803 17.6518 17.1261 18.694 15.457 19.1883C13.7879 19.6826 12.0011 19.6002 10.3845 18.9545C8.76789 18.3087 7.41549 17.1372 6.54518 15.6286C6.27023 15.152 5.66129 14.9887 5.18506 15.2638C4.70884 15.539 4.54568 16.1484 4.82062 16.625C5.91454 18.5213 7.61438 19.9938 9.64635 20.8054C11.6783 21.6171 13.9241 21.7206 16.022 21.0993C18.12 20.478 19.9478 19.1681 21.2113 17.3805C22.4747 15.5929 23.1002 13.4318 22.9869 11.2451C22.8736 9.05851 22.0281 6.97369 20.5867 5.32648C19.1453 3.67928 17.1919 2.56559 15.041 2.16478C12.8901 1.76398 10.6671 2.09941 8.72987 3.11703C6.94406 4.05513 5.49703 5.52263 4.58291 7.31251Z" fill="#4A4A4A"/>
</svg>
