<svg width="19" height="17" viewBox="0 0 19 17" fill="none" xmlns="http://www.w3.org/2000/svg">
<path fill-rule="evenodd" clip-rule="evenodd" d="M16.014 4.50911L16.5194 1.64058C16.599 1.18893 17.0293 0.887364 17.4806 0.967001C17.9319 1.04664 18.2332 1.47732 18.1537 1.92897L17.3099 6.71816C17.2303 7.1698 16.8 7.47137 16.3487 7.39173L11.5633 6.54727C11.112 6.46763 10.8107 6.03695 10.8902 5.5853C10.9698 5.13366 11.4002 4.83209 11.8514 4.91173L14.602 5.39711C14.0008 4.15051 13.0146 3.12826 11.787 2.48337C10.5026 1.80869 9.02874 1.5863 7.60272 1.85204C6.1767 2.11777 4.88156 2.85614 3.92591 3.94823C2.97027 5.04033 2.40974 6.42256 2.33463 7.87229C2.25951 9.32202 2.67418 10.7549 3.51184 11.94C4.3495 13.1252 5.56138 13.9937 6.95229 14.4056C8.3432 14.8175 9.83217 14.7489 11.1794 14.2107C12.5265 13.6726 13.6535 12.6963 14.3788 11.4391C14.6079 11.042 15.1154 10.9059 15.5122 11.1352C15.9091 11.3645 16.0451 11.8724 15.8159 12.2695C14.9043 13.8497 13.4878 15.0768 11.7945 15.7532C10.1012 16.4296 8.22968 16.5158 6.48142 15.9981C4.73316 15.4803 3.20992 14.3887 2.15706 12.8991C1.10419 11.4094 0.582989 9.60848 0.677402 7.78629C0.771814 5.9641 1.47634 4.22675 2.67751 2.85408C3.87868 1.48141 5.50657 0.553328 7.29896 0.219326C9.09135 -0.114675 10.9439 0.164844 12.5582 1.01286C14.0464 1.79461 15.2523 3.01754 16.014 4.50911Z" fill="#4A4A4A"/>
</svg>