<svg xmlns="http://www.w3.org/2000/svg" width="24" height="24" viewBox="0 0 24 24" fill="none">
  <path fill-rule="evenodd" clip-rule="evenodd" d="M9.17947 17.6573H6.25109C5.62949 17.6573 5.0734 18.0141 4.83133 18.5439L3.57769 21.2737C3.38075 21.7016 3.5714 22.2162 4.03984 22.4196C4.17094 22.4744 4.29982 22.5 4.41916 22.5C4.78116 22.5 5.1168 22.2954 5.26389 21.974L6.44161 19.4068H8.67947C9.98442 19.4068 11.0197 18.3816 11.0197 17.1573V13.5861L11.4936 13.5614C13.0222 13.4816 14.2149 12.2569 14.2149 10.7923C14.2149 10.0072 13.8662 9.25392 13.2525 8.72404C11.7218 7.40795 10.6133 5.70384 10.0496 3.79188L9.5635 2.1398C9.42781 1.68456 8.9236 1.39643 8.41694 1.53459C7.92241 1.66945 7.6568 2.15764 7.78898 2.61314L8.27498 4.26495C8.93254 6.49104 10.2242 8.48174 12.0128 10.0215L12.0163 10.0246C12.2319 10.2137 12.3676 10.489 12.3676 10.7923C12.3676 11.3698 11.891 11.8109 11.3351 11.8146L10.4866 11.8147C9.74965 11.8147 9.17947 12.3896 9.17947 13.064V17.6573Z" fill="#4A4A4A"/>
  <path fill-rule="evenodd" clip-rule="evenodd" d="M15.4189 17.833C15.0689 18.1719 15.067 18.7164 15.4195 19.0604C15.5976 19.2325 15.8324 19.3212 16.0759 19.3212C16.3196 19.3212 16.5546 19.2323 16.7328 19.0598C17.4435 18.3718 17.8303 17.4661 17.8303 16.5012C17.8303 15.5362 17.4435 14.6305 16.7328 13.9425C16.3735 13.5946 15.7822 13.5931 15.4178 13.9436C15.0672 14.2808 15.0655 14.8244 15.4195 15.1698C15.7852 15.5241 15.9865 15.9968 15.9865 16.5012C15.9865 17.0086 15.7794 17.4794 15.4213 17.8307L15.4189 17.833Z" fill="#4A4A4A"/>
  <path fill-rule="evenodd" clip-rule="evenodd" d="M18.9719 21.3785L18.9738 21.3796C19.1173 21.4611 19.2762 21.4998 19.4368 21.4998C19.7609 21.4998 20.0693 21.3362 20.2403 21.0547C21.9201 18.2436 21.92 14.7538 20.2398 11.9428C19.9877 11.5233 19.422 11.3683 18.9714 11.6201C18.5327 11.8673 18.3946 12.3958 18.6381 12.8084C19.9993 15.0867 19.9994 17.9161 18.6374 20.1911C18.3936 20.5972 18.5301 21.1299 18.9719 21.3785Z" fill="#4A4A4A"/>
</svg>