<svg width="24" height="24" viewBox="0 0 24 24" fill="none" xmlns="http://www.w3.org/2000/svg">
  <g clip-path="url(#clip0_4367_55)">
    <path d="M3.44447 2C2.55489 2 2 2.63477 2 3.22225V5.11119C2 5.66348 1.55228 6.11119 1 6.11119C0.447715 6.11119 0 5.66348 0 5.11119V3.22225C0 1.3551 1.63397 0 3.44447 0H7.7223C8.27459 0 8.7223 0.447715 8.7223 1C8.7223 1.55228 8.27459 2 7.7223 2H3.44447Z" fill="#4A4A4A"/>
    <path d="M15.278 1C15.278 0.447715 15.7257 0 16.278 0H20.5558C22.3663 0 24.0003 1.3551 24.0003 3.22225V5.11119C24.0003 5.66348 23.5525 6.11119 23.0003 6.11119C22.448 6.11119 22.0003 5.66348 22.0003 5.11119V3.22225C22.0003 2.63478 21.4454 2 20.5558 2H16.278C15.7257 2 15.278 1.55228 15.278 1Z" fill="#4A4A4A"/>
    <path d="M1 17.8891C1.55228 17.8891 2 18.3368 2 18.8891V20.778C2 21.3655 2.55489 22.0003 3.44447 22.0003H7.7223C8.27459 22.0003 8.7223 22.448 8.7223 23.0003C8.7223 23.5525 8.27459 24.0003 7.7223 24.0003H3.44447C1.63397 24.0003 0 22.6452 0 20.778V18.8891C0 18.3368 0.447715 17.8891 1 17.8891Z" fill="#4A4A4A"/>
    <path d="M23.0003 17.8891C23.5525 17.8891 24.0003 18.3368 24.0003 18.8891V20.778C24.0003 22.6452 22.3663 24.0003 20.5558 24.0003H16.278C15.7257 24.0003 15.278 23.5525 15.278 23.0003C15.278 22.448 15.7257 22.0003 16.278 22.0003H20.5558C21.4454 22.0003 22.0003 21.3655 22.0003 20.778V18.8891C22.0003 18.3368 22.448 17.8891 23.0003 17.8891Z" fill="#4A4A4A"/>
    <path d="M14 12C14 11.4477 14.4477 11 15 11H20.5858L18.2929 8.70711C17.9024 8.31658 17.9024 7.68342 18.2929 7.29289C18.6834 6.90237 19.3166 6.90237 19.7071 7.29289L23.7071 11.2929C24.0976 11.6834 24.0976 12.3166 23.7071 12.7071L19.7071 16.7071C19.3166 17.0976 18.6834 17.0976 18.2929 16.7071C17.9024 16.3166 17.9024 15.6834 18.2929 15.2929L20.5858 13H15C14.4477 13 14 12.5523 14 12Z" fill="#4A4A4A"/>
    <path d="M9 13C9.55229 13 10 12.5523 10 12C10 11.4477 9.55229 11 9 11H3.41421L5.70711 8.70711C6.09763 8.31658 6.09763 7.68342 5.70711 7.29289C5.31658 6.90237 4.68342 6.90237 4.29289 7.29289L0.292893 11.2929C-0.097631 11.6834 -0.097631 12.3166 0.292893 12.7071L4.29289 16.7071C4.68342 17.0976 5.31658 17.0976 5.70711 16.7071C6.09763 16.3166 6.09763 15.6834 5.70711 15.2929L3.41421 13H9Z" fill="#4A4A4A"/>
  </g>
  <defs>
    <clipPath id="clip0_4367_55">
      <rect width="24" height="24" fill="white"/>
    </clipPath>
  </defs>
</svg>