<svg width="24" height="24" viewBox="0 0 24 24" fill="none" xmlns="http://www.w3.org/2000/svg">
<path fill-rule="evenodd" clip-rule="evenodd" d="M4.5 3C3.67157 3 3 3.67157 3 4.5L3 7L7 7L7 3H4.5ZM7 9H3L3 19.5C3 20.3284 3.67157 21 4.5 21H7L7 9ZM9 9L21 9L21 19.5C21 20.3284 20.3284 21 19.5 21L9 21L9 9ZM21 7L9 7L9 3L19.5 3C20.3284 3 21 3.67157 21 4.5V7ZM1 4.5C1 2.567 2.567 1 4.5 1L19.5 1C21.433 1 23 2.567 23 4.5L23 19.5C23 21.433 21.433 23 19.5 23L4.5 23C2.567 23 1 21.433 1 19.5L1 4.5Z" fill="#4A4A4A"/>
</svg>
