<svg width="24" height="24" viewBox="0 0 24 24" fill="none" xmlns="http://www.w3.org/2000/svg">
<path d="M1 21.9137C1 21.3614 1.44772 20.9137 2 20.9137H22C22.5523 20.9137 23 21.3614 23 21.9137V22.9137C23 23.466 22.5523 23.9137 22 23.9137H2C1.44772 23.9137 1 23.466 1 22.9137V21.9137Z" fill="#4A4A4A"/>
<path fill-rule="evenodd" clip-rule="evenodd" d="M17.2443 1.79406C16.019 0.678742 14.1188 0.770952 13 2.00002L6.71031 8.88787C5.92318 9.75257 5.58342 10.8665 5.67807 11.9444L2.64742 18.0588C2.49386 18.3686 2.51125 18.7358 2.6934 19.0297C2.87556 19.3236 3.19663 19.5025 3.54242 19.5029L9.2154 19.5084C9.39966 19.5086 9.58039 19.4579 9.73764 19.3618L12.1794 17.8704C13.2643 17.8659 14.3451 17.4231 15.1343 16.5562L21.424 9.66831C22.5428 8.43924 22.4566 6.53873 21.2313 5.42341L17.2443 1.79406ZM11.847 15.8409L11.7976 15.76L11.7098 15.8136C11.3904 15.7384 11.0854 15.5834 10.8258 15.3471L8.31779 13.0641C8.05797 12.8276 7.87498 12.5381 7.77023 12.227L7.81312 12.1404L7.73221 12.1003C7.56406 11.4644 7.71259 10.7579 8.18931 10.2342L14.479 3.34634C14.8519 2.93665 15.4853 2.90591 15.8938 3.27768L19.8808 6.90703C20.2892 7.2788 20.318 7.91231 19.945 8.322L13.6553 15.2098C13.1803 15.7317 12.4939 15.9462 11.847 15.8409ZM6.73403 14.3175C6.80798 14.3967 6.88574 14.4735 6.96727 14.5477L9.47531 16.8308C9.55311 16.9016 9.63296 16.9688 9.71463 17.0323L8.93558 17.5082L5.15438 17.5045L6.73403 14.3175Z" fill="#4A4A4A"/>
</svg>
