<svg width="24" height="24" viewBox="0 0 24 24" fill="none" xmlns="http://www.w3.org/2000/svg">
<path d="M5.7404 19.2C5.36754 19.2 5.0879 19.0422 4.90147 18.7268C4.71504 18.4113 4.7007 18.0814 4.85845 17.7373L11.0106 3.08834C11.197 2.62944 11.5125 2.39999 11.957 2.39999C12.4303 2.39999 12.7529 2.62944 12.925 3.08834L19.0987 17.7803C19.2421 18.1244 19.2134 18.4471 19.0126 18.7483C18.8262 19.0494 18.5465 19.2 18.1737 19.2C17.9873 19.2 17.808 19.1498 17.6359 19.0494C17.4638 18.9347 17.3348 18.7769 17.2487 18.5762L11.6774 4.89526H12.3012L6.68688 18.5762C6.60083 18.7913 6.47177 18.949 6.29968 19.0494C6.12759 19.1498 5.94116 19.2 5.7404 19.2ZM6.98803 14.3682L7.78393 12.6689H16.3238L17.0981 14.3682H6.98803Z" fill="#4A4A4A"/>
<path d="M2 21.4C2 20.8477 2.44772 20.4 3 20.4H21C21.5523 20.4 22 20.8477 22 21.4V22.4C22 22.9523 21.5523 23.4 21 23.4H3C2.44772 23.4 2 22.9523 2 22.4V21.4Z" fill="#4A4A4A"/>
</svg>
