<svg width="24" height="24" viewBox="0 0 24 24" fill="none" xmlns="http://www.w3.org/2000/svg">
<path d="M5.74064 18C5.36779 18 5.08814 17.8423 4.90172 17.5268C4.71529 17.2113 4.70095 16.8814 4.85869 16.5373L11.0108 1.88836C11.1972 1.42946 11.5127 1.20001 11.9573 1.20001C12.4305 1.20001 12.7532 1.42946 12.9253 1.88836L19.0989 16.5803C19.2423 16.9245 19.2136 17.2471 19.0129 17.5483C18.8264 17.8494 18.5468 18 18.1739 18C17.9875 18 17.8082 17.9498 17.6362 17.8494C17.4641 17.7347 17.335 17.577 17.249 17.3762L11.6776 3.69527H12.3015L6.68712 17.3762C6.60108 17.5913 6.47201 17.7491 6.29992 17.8494C6.12784 17.9498 5.94141 18 5.74064 18ZM6.98827 13.1683L7.78417 11.4689H16.324L17.0984 13.1683H6.98827Z" fill="#4A4A4A"/>
<path d="M1.19995 21.8C1.19995 20.6954 2.09538 19.8 3.19995 19.8H6.59995V24H3.19995C2.09538 24 1.19995 23.1046 1.19995 22V21.8Z" fill="#46AFE6"/>
<rect x="6.59998" y="19.8" width="5.4" height="4.2" fill="#A348C0"/>
<rect x="12" y="19.8" width="5.4" height="4.2" fill="#FF3A55"/>
<path d="M17.3999 19.8H20.7999C21.9045 19.8 22.7999 20.6954 22.7999 21.8V22C22.7999 23.1046 21.9045 24 20.7999 24H17.3999V19.8Z" fill="#FF8D2E"/>
</svg>
