<svg xmlns="http://www.w3.org/2000/svg" width="24" height="24" viewBox="0 0 24 24" fill="none">
  <path fill-rule="evenodd" clip-rule="evenodd" d="M12.6 21H12.3C11.9 21 11.6 20.8 11.3 20.5L6.4 16.4H3.1C2.5 16.4 2 16.2 1.6 15.8C1.2 15.4 1 14.8 1 14.3V9.69998C1 9.09998 1.2 8.59998 1.6 8.19998C2 7.79998 2.6 7.59998 3.1 7.59998H6.3L11.2 3.49998C11.5 3.29998 11.9 3.09998 12.2 2.99998C12.6 2.89998 13 2.99998 13.3 3.19998C13.6 3.39998 13.9 3.59998 14.2 3.89998C14.4 4.19999 14.5 4.59999 14.5 4.99998V19C14.5 19.4 14.4 19.8 14.2 20.1C14 20.4 13.7 20.7 13.3 20.9C13.2634 20.9 13.2 20.9134 13.1196 20.9304C12.9804 20.9598 12.7902 21 12.6 21ZM5 9.59999H3V14.4H5V9.59999ZM7.3 14.6C7.2445 14.5445 7.12741 14.489 7 14.4506V9.55798C7.14967 9.51115 7.27484 9.42515 7.4 9.29998L12.6 4.89998L12.5 18.9L7.3 14.6ZM20 17.4C20.1 17.5 20.3 17.5 20.5 17.5C20.8 17.5 21.1 17.3 21.3 17.1C23 14.3 23 10.8 21.3 8C21 7.5 20.4 7.3 20 7.6C19.6 7.8 19.4 8.4 19.7 8.8C21.1 11.1 21.1 13.9 19.7 16.2C19.4 16.6 19.5 17.1 20 17.4ZM16.4 13.8C16 14.1 16 14.7 16.4 15C16.6 15.2 16.8 15.3 17.1 15.3C17.3 15.3 17.6 15.2 17.8 15C18.5 14.3 18.9 13.4 18.9 12.4C18.9 11.4 18.5 10.5 17.8 9.80001C17.4 9.50001 16.8 9.50001 16.5 9.80001C16.1 10.1 16.1 10.7 16.5 11C16.9 11.4 17.1 11.8 17.1 12.3C17 13 16.8 13.5 16.4 13.8Z" fill="#4A4A4A"/>
</svg>