<svg width="24" height="24" viewBox="0 0 24 24" fill="none" xmlns="http://www.w3.org/2000/svg">
<g clip-path="url(#clip0_2250_15706)">
<path fill-rule="evenodd" clip-rule="evenodd" d="M4.95334 13.5376C4.2164 14.3007 3.81279 15.3253 3.83131 16.386C3.84982 17.4467 4.28894 18.4566 5.05207 19.1936C5.81519 19.9305 6.8398 20.3341 7.90051 20.3156C8.42572 20.3064 8.94398 20.1939 9.4257 19.9844C9.90741 19.775 10.3432 19.4727 10.7081 19.0948L12.792 16.9368C13.1757 16.5395 13.8088 16.5285 14.206 16.9121C14.6033 17.2958 14.6144 17.9289 14.2307 18.3261L12.1467 20.4842C11.5994 21.0509 10.9458 21.5044 10.2232 21.8186C9.50061 22.1328 8.72322 22.3015 7.93541 22.3153C6.34436 22.3431 4.80743 21.7377 3.66275 20.6322C2.51806 19.5268 1.85939 18.012 1.83161 16.4209C1.80384 14.8299 2.40925 13.2929 3.51466 12.1483L5.59864 9.99024C5.98228 9.59296 6.61535 9.58191 7.01263 9.96555C7.40991 10.3492 7.42096 10.9823 7.03731 11.3796L4.95334 13.5376ZM9.79127 7.0882C9.39399 6.70455 9.38294 6.07148 9.76659 5.6742L11.8506 3.51618C12.3979 2.94939 13.0515 2.49595 13.7741 2.18177C14.4967 1.86758 15.2741 1.69879 16.0619 1.68504C16.8497 1.67129 17.6325 1.81285 18.3656 2.10162C19.0987 2.3904 19.7678 2.82075 20.3345 3.36809C20.9013 3.91543 21.3548 4.56905 21.669 5.29163C21.9831 6.01421 22.1519 6.7916 22.1657 7.57941C22.1794 8.36722 22.0379 9.15003 21.7491 9.88314C21.4603 10.6162 21.03 11.2853 20.4826 11.8521L18.3987 14.0101C18.015 14.4074 17.3819 14.4184 16.9847 14.0348C16.5874 13.6511 16.5763 13.0181 16.96 12.6208L19.044 10.4628C19.4089 10.0849 19.6958 9.63887 19.8883 9.15013C20.0808 8.6614 20.1752 8.13953 20.166 7.61432C20.1568 7.08911 20.0443 6.57085 19.8348 6.08913C19.6254 5.60741 19.3231 5.17166 18.9452 4.80677C18.5674 4.44187 18.1213 4.15498 17.6326 3.96246C17.1439 3.76994 16.622 3.67557 16.0968 3.68474C15.5716 3.6939 15.0533 3.80643 14.5716 4.01589C14.0899 4.22534 13.6541 4.52763 13.2892 4.90549L11.2053 7.06351C10.8216 7.4608 10.1885 7.47184 9.79127 7.0882Z" fill="#4A4A4A"/>
<path fill-rule="evenodd" clip-rule="evenodd" d="M7.90923 5.96512C7.37834 6.11735 6.82456 5.81038 6.67233 5.27949L6.12106 3.35697C5.96883 2.82608 6.27579 2.2723 6.80668 2.12007C7.33757 1.96784 7.89135 2.2748 8.04358 2.80569L8.59485 4.72822C8.74708 5.25911 8.44012 5.81289 7.90923 5.96512Z" fill="#4A4A4A"/>
<path fill-rule="evenodd" clip-rule="evenodd" d="M16.0888 18.0345C16.6196 17.8823 17.1734 18.1892 17.3257 18.7201L17.8769 20.6426C18.0292 21.1735 17.7222 21.7273 17.1913 21.8795C16.6604 22.0318 16.1066 21.7248 15.9544 21.1939L15.4031 19.2714C15.2509 18.7405 15.5579 18.1867 16.0888 18.0345Z" fill="#4A4A4A"/>
<path fill-rule="evenodd" clip-rule="evenodd" d="M5.82523 8.12315C5.69163 8.65903 5.1489 8.98513 4.61302 8.85152L2.67243 8.36768C2.13655 8.23407 1.81044 7.69134 1.94405 7.15546C2.07766 6.61958 2.62039 6.29348 3.15627 6.42709L5.09686 6.91093C5.63274 7.04454 5.95884 7.58727 5.82523 8.12315Z" fill="#4A4A4A"/>
<path fill-rule="evenodd" clip-rule="evenodd" d="M18.1727 15.8765C18.3063 15.3406 18.8491 15.0145 19.3849 15.1481L21.3255 15.6319C21.8614 15.7655 22.1875 16.3083 22.0539 16.8441C21.9203 17.38 21.3776 17.7061 20.8417 17.5725L18.9011 17.0887C18.3652 16.9551 18.0391 16.4123 18.1727 15.8765Z" fill="#4A4A4A"/>
</g>
<defs>
<clipPath id="clip0_2250_15706">
<rect width="24" height="24" fill="white"/>
</clipPath>
</defs>
</svg>
