<svg width="24" height="24" viewBox="0 0 24 24" fill="none" xmlns="http://www.w3.org/2000/svg">
<path fill-rule="evenodd" clip-rule="evenodd" d="M10 0C10.5523 0 11 0.447715 11 1C11 1.26522 11.1054 1.51957 11.2929 1.70711C11.4804 1.89464 11.7348 2 12 2C12.5523 2 13 2.44772 13 3C13 3.55228 12.5523 4 12 4C11.7348 4 11.4804 4.10536 11.2929 4.29289C11.1054 4.48043 11 4.73478 11 5C11 5.55228 10.5523 6 10 6C9.44772 6 9 5.55228 9 5C9 4.73478 8.89464 4.48043 8.70711 4.29289C8.51957 4.10536 8.26522 4 8 4C7.44772 4 7 3.55228 7 3C7 2.44772 7.44772 2 8 2C8.26522 2 8.51957 1.89464 8.70711 1.70711C8.89464 1.51957 9 1.26522 9 1C9 0.447715 9.44772 0 10 0ZM19.9142 2C19.1331 1.21895 17.8668 1.21895 17.0858 2L0.999971 18.0858C0.218922 18.8668 0.218922 20.1332 0.999971 20.9142L3.08576 23C3.86681 23.7811 5.13314 23.781 5.91418 23L22 6.91422C22.781 6.13317 22.781 4.86684 22 4.08579L19.9142 2ZM16.1642 5.74999L18.5 3.41422L20.5858 5.5L18.25 7.83577L16.1642 5.74999ZM14.75 7.1642L2.41418 19.5L4.49997 21.5858L16.8358 9.24999L14.75 7.1642ZM21 13C21 12.4477 20.5523 12 20 12C19.4477 12 19 12.4477 19 13C19 13.2652 18.8946 13.5196 18.7071 13.7071C18.5196 13.8946 18.2652 14 18 14C17.4477 14 17 14.4477 17 15C17 15.5523 17.4477 16 18 16C18.2652 16 18.5196 16.1054 18.7071 16.2929C18.8946 16.4804 19 16.7348 19 17C19 17.5523 19.4477 18 20 18C20.5523 18 21 17.5523 21 17C21 16.7348 21.1054 16.4804 21.2929 16.2929C21.4804 16.1054 21.7348 16 22 16C22.5523 16 23 15.5523 23 15C23 14.4477 22.5523 14 22 14C21.7348 14 21.4804 13.8946 21.2929 13.7071C21.1054 13.5196 21 13.2652 21 13Z" fill="#4A4A4A"/>
</svg>
