<svg width="24" height="24" viewBox="0 0 24 24" fill="none" xmlns="http://www.w3.org/2000/svg">
<path fill-rule="evenodd" clip-rule="evenodd" d="M10.95 3.6C6.89071 3.6 3.6 6.89071 3.6 10.95C3.6 15.0093 6.89071 18.3 10.95 18.3C12.9302 18.3 14.7275 17.5169 16.0491 16.2436C16.0767 16.2076 16.1071 16.173 16.14 16.14C16.173 16.1071 16.2076 16.0767 16.2436 16.0491C17.5169 14.7275 18.3 12.9302 18.3 10.95C18.3 6.89071 15.0093 3.6 10.95 3.6ZM10.95 20.4C13.1813 20.4 15.2319 19.6267 16.8486 18.3335L20.7075 22.1924C21.1176 22.6025 21.7824 22.6025 22.1924 22.1924C22.6025 21.7824 22.6025 21.1176 22.1924 20.7075L18.3335 16.8486C19.6267 15.2319 20.4 13.1813 20.4 10.95C20.4 5.73091 16.1691 1.5 10.95 1.5C5.73091 1.5 1.5 5.73091 1.5 10.95C1.5 16.1691 5.73091 20.4 10.95 20.4ZM7.8 9.89999C7.2201 9.89999 6.75 10.3701 6.75 10.95C6.75 11.5299 7.2201 12 7.8 12H14.1C14.6799 12 15.15 11.5299 15.15 10.95C15.15 10.3701 14.6799 9.89999 14.1 9.89999H7.8Z" fill="#4A4A4A"/>
</svg>
