<svg width="24" height="24" viewBox="0 0 24 24" fill="none" xmlns="http://www.w3.org/2000/svg">
<path fill-rule="evenodd" clip-rule="evenodd" d="M3.6 10.95C3.6 6.89071 6.89071 3.6 10.95 3.6C15.0093 3.6 18.3 6.89071 18.3 10.95C18.3 12.9302 17.5169 14.7275 16.2435 16.0491C16.2076 16.0768 16.173 16.1071 16.14 16.14C16.1071 16.173 16.0768 16.2076 16.0491 16.2435C14.7275 17.5169 12.9302 18.3 10.95 18.3C6.89071 18.3 3.6 15.0093 3.6 10.95ZM16.8486 18.3335C15.2319 19.6267 13.1813 20.4 10.95 20.4C5.73091 20.4 1.5 16.1691 1.5 10.95C1.5 5.73091 5.73091 1.5 10.95 1.5C16.1691 1.5 20.4 5.73091 20.4 10.95C20.4 13.1813 19.6267 15.2319 18.3335 16.8486L22.1925 20.7075C22.6025 21.1176 22.6025 21.7824 22.1925 22.1924C21.7824 22.6025 21.1176 22.6025 20.7075 22.1924L16.8486 18.3335ZM10.95 6.75C11.5299 6.75 12 7.2201 12 7.8V9.89999H14.1C14.6799 9.89999 15.15 10.3701 15.15 10.95C15.15 11.5299 14.6799 12 14.1 12H12V14.1C12 14.6799 11.5299 15.15 10.95 15.15C10.3701 15.15 9.9 14.6799 9.9 14.1V12H7.8C7.2201 12 6.75 11.5299 6.75 10.95C6.75 10.3701 7.2201 9.89999 7.8 9.89999H9.9V7.8C9.9 7.2201 10.3701 6.75 10.95 6.75Z" fill="#4A4A4A"/>
</svg>
